<?xml version="1.0" encoding="UTF-8"?>
<svg id="_레이어_2" data-name="레이어 2" xmlns="http://www.w3.org/2000/svg" viewBox="0 0 180.94 92.01">
  <defs>
    <style>
      .cls-1 {
        fill: #fff;
      }

      .cls-1, .cls-2 {
        stroke-width: 0px;
      }

      .cls-2 {
        fill: #ff4d77;
      }
    </style>
  </defs>
  <g id="BACKGROUND_2" data-name="BACKGROUND 2">
    <g>
      <g>
        <path class="cls-2" d="M10.49,41.82c-.52,0-1.04-.07-1.54-.2-.61-.14-1.25-.44-1.83-.87-.78-.57-1.29-1.34-1.48-2.23-.13-.49-.16-.99-.08-1.49.04-.29.11-.57.21-.83.26-.92.81-1.7,1.59-2.28.45-.33.92-.63,1.41-.89.17-.1.35-.2.52-.3-.44-.18-.87-.4-1.27-.66-.9-.57-1.49-1.42-1.71-2.46l-.03-.14v-.14c-.12-1.01.08-2.01.56-2.97.02-.04.04-.08.06-.12-.48-.11-.93-.26-1.35-.45-.78-.36-1.41-.9-1.88-1.61-.42-.6-.73-1.38-.88-2.27-.11-.6-.18-1.19-.23-1.77-.05-.6-.06-1.12-.05-1.59l.02-.55v-1.84c0-.4.01-.83.04-1.31,0-.48,0-.95.02-1.42.01-.44.02-.83.02-1.19v-1.72c0-.3.02-.62.05-.97.03-.33.09-.67.16-1.01.12-.55.32-1.06.6-1.48.41-.63.88-1.13,1.41-1.5.53-.36,1.17-.62,1.9-.77.26-.05.55-.08.95-.11.23-.01.43-.03.61-.05.42-.04.81-.06,1.2-.06h9.04c.7,0,1.44.06,2.21.16,1,.14,1.92.47,2.72.98.8.48,1.44,1.2,1.8,2.05.25.58.42,1.21.5,1.87.07.59.09,1.18.05,1.77-.02.39-.03.74-.03,1.07,0,.45,0,.9-.02,1.34-.01.34,0,.68.02,1.02v.16s0,2.45,0,2.45l-.02.1c.01.2.02.38.02.57v.2l-.03.19c-.02.15-.03.29-.02.43.03.41.05.83.05,1.26,0,.39-.03.8-.08,1.24-.06.52-.19,1.04-.37,1.55-.14.38-.31.74-.51,1.07h1.52c-.12-.35-.22-.74-.29-1.2l-.03-.19v-12.75c-.03-.33-.01-.73.06-1.32.09-.78.27-1.45.57-2.04.36-.75,1.32-2.1,3.59-2.33.23-.03.53-.05.81-.05,1.8,0,2.9.8,3.5,1.47l.07.08.07.09c.32.43.56.88.71,1.33.08.24.15.49.22.75.13.44.2.91.22,1.38.02.37,0,.74-.02,1.1v1.55c.05,0,.11,0,.16.01.41.04.71.08.9.12,1.01.2,1.78.56,2.34,1.09.57.53.96,1.23,1.13,2,.12.48.18,1.01.18,1.58,0,.85-.2,1.61-.6,2.27-.72,1.2-1.9,1.95-3.32,2.1-.26.03-.52.05-.8.07v.97c-.04.36-.09.73-.16,1.1-.1.58-.3,1.14-.59,1.67-.07.15-.16.3-.26.44.06.05.11.1.17.15.68.65,1.11,1.5,1.28,2.52l.05.32-.03.32c-.1,1.1-.45,2.02-1.05,2.73-.45.54-.98.96-1.59,1.26.2.11.4.22.58.33.56.33,1.12.74,1.65,1.21.62.55,1.05,1.25,1.25,2.03.18.69.2,1.39.04,2.08-.16.69-.47,1.31-.92,1.86-.55.66-1.3,1.11-2.18,1.31-.62.13-1.21.2-1.8.2-.67,0-1.34-.08-2.01-.24-1.08-.25-2.1-.61-3.04-1.06-.21-.1-.5-.25-.9-.47-.38-.21-.82-.45-1.31-.72-.48-.27-2.52-1.42-3-1.68-.31-.17-.59-.33-.86-.47-.52.31-1.08.63-1.68.98-.66.38-1.26.74-1.82,1.07-.48.28-.76.46-.87.52l-.09.06-.12.07c-.48.25-.96.5-1.46.74-.53.26-1.07.49-1.61.7-.63.24-1.3.43-1.99.55-.36.06-.73.1-1.08.1ZM12.75,16.94c.45-.02.89-.03,1.28-.03.2,0,.38,0,.55,0,.37.01.83.02,1.38.02,0-.12,0-.25,0-.38,0-.45,0-.91.02-1.36,0-.18,0-.37,0-.56l-3.58-.06v.98l-.02.16c-.01.1-.02.18-.02.26v.96c.13,0,.25,0,.38,0Z"/>
        <path class="cls-1" d="M31.07,6.68c.71,0,1.26.21,1.64.64.16.21.27.42.34.62.07.2.13.41.18.62.08.27.13.55.14.84.01.29,0,.59-.02.88h0s0,0,0,0v4.04c.11,0,.31,0,.6.02.29.01.6.03.92.04.32.01.63.03.92.06.29.03.51.05.64.08.53.11.91.26,1.12.46.21.2.35.45.4.74.08.29.12.63.12,1.02s-.08.71-.24.98c-.32.53-.8.83-1.44.9-.64.07-1.35.11-2.12.14h-.92v3.16c-.03.29-.07.59-.12.9-.05.31-.16.61-.32.9-.16.32-.39.59-.68.8-.37.27-.81.4-1.32.4-.45,0-.83-.09-1.12-.28-.27-.16-.48-.36-.64-.6s-.29-.47-.38-.7c-.09-.23-.17-.51-.22-.86v-12.72c-.03-.11-.01-.4.04-.88.05-.48.16-.88.32-1.2.27-.56.8-.88,1.6-.96.2-.03.38-.04.56-.04M18.55,7.08c.59,0,1.21.05,1.86.14.65.09,1.23.3,1.74.62.4.24.68.55.84.92.16.37.27.77.32,1.2.05.43.07.86.04,1.3-.03.44-.04.85-.04,1.22,0,.43,0,.85-.02,1.26-.01.41,0,.83.02,1.26v2.2c-.03.13-.03.28-.02.44.01.16.02.32.02.48-.05.35-.07.69-.04,1.02.03.33.04.69.04,1.06,0,.29-.02.61-.06.94-.04.33-.12.67-.24,1-.12.33-.28.63-.48.9s-.46.45-.78.56c-.66.28-1.36.42-2.08.42-.03,0-.07,0-.1,0-.76-.01-1.5-.02-2.22-.02-.19.03-.61.04-1.26.04s-1.35,0-2.1-.02c-.75-.01-1.45-.02-2.12-.02h-1.36c-.48,0-.95,0-1.42-.02s-.91-.05-1.34-.12-.81-.18-1.16-.34c-.35-.16-.63-.4-.84-.72-.24-.35-.41-.79-.5-1.32-.09-.53-.16-1.05-.2-1.54s-.05-.93-.04-1.3c.01-.37.02-.57.02-.6v-1.88c0-.37.01-.79.04-1.24,0-.48,0-.95.02-1.42.01-.47.02-.89.02-1.26v-1.72c0-.21.01-.45.04-.7.03-.25.07-.51.12-.76.05-.25.13-.46.24-.62.24-.37.49-.65.74-.82.25-.17.58-.3.98-.38.13-.03.33-.05.6-.06.27-.01.52-.03.76-.06.29-.03.6-.04.92-.04h9.04M12.75,19.44h.04c.47-.02.88-.03,1.24-.03.17,0,.33,0,.48,0,.45.01,1.04.02,1.76.02.21,0,.43,0,.66.02.05,0,.09,0,.14,0,.18,0,.35-.02.52-.06.21-.03.36-.09.44-.2s.15-.24.2-.4c.05-.21.08-.39.08-.52.11-.51.16-1.08.16-1.72,0-.43,0-.85.02-1.28.01-.43,0-.85-.02-1.28-.03-.21-.03-.43-.02-.64.01-.21,0-.43-.06-.64-.11-.29-.28-.46-.52-.5s-.48-.06-.72-.06l-4.92-.08h-.66c-.2,0-.38.03-.54.08-.37.03-.68.19-.92.48-.11.13-.17.33-.18.6s-.02.43-.02.48v1.68c-.03.21-.04.41-.04.58v.94c0,.32,0,.59.02.8.01.21.05.43.1.64.05.21.15.4.28.56.21.27.56.42,1.04.46.48.04.96.06,1.44.06M29.51,26.56c.48,0,.96,0,1.44.02.48.01.92.07,1.32.18.4.11.74.29,1.02.56s.46.64.54,1.12c-.05.59-.21,1.04-.48,1.36-.27.32-.59.55-.96.7-.37.15-.79.23-1.26.26-.23.01-.46.02-.68.02s-.44,0-.65-.02h-5.32c.05.03.26.14.62.34.36.2.79.43,1.28.7.49.27,1.03.55,1.6.84.57.29,1.11.57,1.6.82.49.25.93.47,1.3.66.37.19.6.28.68.28.53.24,1.01.49,1.44.74.43.25.85.57,1.28.94.24.21.4.47.48.78.08.31.09.61.02.9-.07.29-.2.56-.4.8-.2.24-.47.4-.82.48-.41.09-.82.13-1.24.13-.48,0-.96-.06-1.44-.17-.91-.21-1.75-.51-2.52-.88-.16-.08-.43-.22-.8-.42s-.8-.43-1.28-.7c-.48-.27-.98-.55-1.5-.84-.52-.29-1.02-.57-1.5-.84-.48-.27-.91-.5-1.3-.7s-.67-.34-.86-.42c-.11.05-.44.25-1,.58-.56.33-1.17.69-1.84,1.08-.67.39-1.28.75-1.84,1.08-.56.33-.88.53-.96.58-.45.24-.91.47-1.38.7s-.94.43-1.42.62c-.48.19-.99.33-1.52.42-.22.04-.44.06-.65.06-.31,0-.61-.04-.91-.12-.35-.08-.67-.23-.98-.46-.31-.23-.49-.5-.54-.82-.05-.16-.07-.33-.04-.5.03-.17.07-.33.12-.46.11-.43.34-.77.7-1.04.36-.27.74-.51,1.14-.72.45-.27.92-.52,1.4-.76.48-.24.96-.48,1.44-.72.51-.27,1-.52,1.48-.76.48-.24.96-.49,1.44-.76.03-.03.17-.11.44-.24s.55-.28.86-.44c.31-.16.59-.31.86-.46s.4-.25.4-.3h-6.44c-.53-.05-1.01-.15-1.44-.28-.37-.13-.73-.31-1.06-.52-.33-.21-.54-.51-.62-.88-.05-.53.05-1.07.32-1.6.27-.53.72-.83,1.36-.88.19-.03.38-.04.58-.04h18.5M31.07,1.68c-.37,0-.76.02-1.15.07-1.84.2-3.42,1-4.53,2.26-.2-.15-.41-.29-.62-.43-1.09-.68-2.32-1.12-3.65-1.31-.89-.13-1.76-.19-2.57-.19h-9.04c-.46,0-.92.02-1.37.06h-.06s-.06.01-.06.01c-.14.02-.28.03-.43.03-.56.03-.96.08-1.34.15-1.07.21-2.02.6-2.83,1.16-.8.55-1.51,1.29-2.11,2.22-.45.69-.77,1.47-.95,2.33-.09.4-.15.83-.2,1.26-.04.41-.07.82-.07,1.22v1.72c0,.33,0,.7-.02,1.11-.01.47-.02.94-.02,1.42-.03.49-.04.95-.04,1.39v1.81c0,.08,0,.24-.02.48-.02.57,0,1.19.05,1.89.05.65.14,1.32.26,2,.21,1.23.65,2.33,1.29,3.26.58.85,1.33,1.57,2.2,2.09-.09.62-.11,1.25-.04,1.88l.03.28.06.27c.2.93.6,1.79,1.16,2.52-.76.79-1.32,1.73-1.63,2.79-.13.39-.23.8-.3,1.23-.13.8-.08,1.64.12,2.44.33,1.45,1.19,2.74,2.43,3.65.83.61,1.75,1.05,2.74,1.29.69.17,1.4.26,2.11.26.5,0,1.01-.04,1.52-.13.86-.15,1.69-.38,2.47-.68.59-.23,1.2-.49,1.79-.78.52-.25,1.03-.51,1.53-.78l.23-.12.17-.12c.13-.08.39-.23.78-.47.55-.33,1.14-.67,1.79-1.05.16-.09.32-.18.47-.27.35.19.7.39,1.07.6.53.3,1.04.59,1.53.86.5.28.95.52,1.34.73.43.23.73.39.92.48l.04.02.04.02c1.1.53,2.29.95,3.55,1.24.86.2,1.73.3,2.59.3.76,0,1.53-.08,2.28-.24h.04s.04-.02.04-.02c1.41-.33,2.63-1.07,3.53-2.14.71-.86,1.19-1.83,1.44-2.89.25-1.11.23-2.2-.06-3.28-.32-1.23-.99-2.34-1.94-3.2.65-.99,1.04-2.16,1.16-3.49l.06-.64-.11-.64c-.16-.95-.49-1.84-.96-2.61.16-.43.28-.88.36-1.33.02-.12.04-.23.06-.35,1.63-.49,3.01-1.55,3.91-3.04.63-1.04.95-2.24.95-3.55,0-.76-.08-1.48-.25-2.15-.28-1.26-.92-2.39-1.86-3.27-.7-.65-1.55-1.14-2.58-1.46,0-.23,0-.45,0-.68-.03-.67-.14-1.32-.31-1.94-.08-.3-.17-.6-.26-.89-.23-.7-.6-1.39-1.08-2.04l-.13-.18-.15-.17c-1.33-1.48-3.23-2.3-5.36-2.3h0Z"/>
      </g>
      <g>
        <path class="cls-2" d="M61.73,41.3c-.98,0-2.1,0-3.37-.02-1.25-.01-2.52-.02-3.82-.02-3.04,0-6.52-.01-10.42-.04h0c-.5,0-1.01-.04-1.5-.11-.73-.1-1.39-.35-1.99-.72-.48-.3-.9-.69-1.21-1.14-.24-.35-.46-.78-.66-1.31l-.04-.1-.03-.11c-.25-.85-.33-1.75-.25-2.65.05-.52.07-1.03.07-1.52v-1.88c0-.61.08-1.34.24-2.24.14-.73.41-1.35.79-1.89-.41-.12-.8-.29-1.15-.51-.68-.38-1.22-.94-1.57-1.64-.27-.55-.44-1.13-.5-1.74-.05-.6,0-1.2.17-1.77.2-.69.54-1.29,1.03-1.78l.08-.08c.44-.41.96-.73,1.53-.96-.04-.17-.07-.35-.09-.54v-.13s-.01-.13-.01-.13c0-.21,0-.42.03-.65.03-.34.11-.68.22-1.02.06-.19.13-.39.22-.61.13-.33.3-.67.51-.98l.28-.42.42-.28c.19-.12.38-.25.58-.37.06-.04.11-.07.17-.11-.22-.18-.42-.39-.59-.63l-.29-.4c-.37-.43-.61-.95-.71-1.51-.01-.07-.04-.16-.06-.26l-.09-.33v-.35c0-.39.05-.78.16-1.14.07-.22.14-.43.22-.63l.05-.12.06-.12c.45-.84,1.07-1.48,1.86-1.91.6-.32,1.24-.54,1.93-.65.49-.08.97-.12,1.45-.12,0,0,.5,0,.6,0,.19,0,.37,0,.54-.02h.09s2.58,0,2.58,0c.29-.93.91-1.73,1.78-2.27.89-.54,1.88-.84,2.96-.89.1,0,.19,0,.28,0,.95,0,1.87.2,2.72.6,1.16.54,1.95,1.44,2.27,2.57h2.29c.49,0,.98-.01,1.47-.04.15,0,.3-.01.44-.01.59,0,1.18.06,1.76.18.35.06.74.16,1.08.28.54.18,1.06.48,1.52.88.28.24.58.55.84.92.36.49.6,1.05.73,1.67.34,2.03-.48,3.19-1,3.71l-.1.1-.11.09c-.29.23-.59.43-.9.6.22.18.45.37.67.56.47.4.86.86,1.17,1.36.4.64.62,1.35.65,2.1.01.33-.01.65-.08.98.82.28,1.51.78,2.03,1.45.55.71.88,1.52.97,2.39.09.9-.09,1.79-.52,2.59-.47.88-1.24,1.57-2.23,1.97l-.16.06c-.06.02-.12.04-.17.06.43.62.81,1.47.94,2.64.07.37.1.75.1,1.13v2.6c0,.36-.02.73-.05,1.11-.02.25-.03.47-.03.69v.22l-.04.22c-.08.44-.16.9-.23,1.38-.17,1.04-.67,1.97-1.45,2.69l-.14.12c-.66.53-1.48.84-2.37.9-.44.03-.88.05-1.31.05h-3.34ZM54.83,18.58l-.08-.08c-.19-.08-.37-.18-.54-.29-.05.02-.27.13-.27.13-.14.06-.29.13-.43.2l-.09.04h1.42Z"/>
        <path class="cls-1" d="M54.3,5c.59,0,1.14.12,1.67.36.57.27.9.68.98,1.24v1.56h4.64c.53,0,1.07-.01,1.6-.04.11,0,.21,0,.32,0,.42,0,.84.04,1.24.13.29.05.56.12.8.2.24.08.47.21.68.4.16.13.31.3.46.5s.25.43.3.7c.11.64,0,1.12-.32,1.44-.4.32-.83.54-1.28.66-.46.12-.92.18-1.4.18-.61.05-1.23.08-1.84.08h-3.16c0,.05.08.12.24.2.13,0,.2.05.2.16.16.05.29.1.4.14.11.04.23.09.36.14.19.08.33.16.44.24.11.08.23.15.36.2.27.13.51.26.74.38.22.12.49.26.78.42.21.13.46.25.74.36.28.11.53.24.74.4.27.13.52.26.76.38l.84.42c.27.21.53.43.8.66.27.23.49.48.66.76.17.28.27.58.28.9s-.1.67-.34,1.04c-.29.45-.71.71-1.24.78-.18.02-.36.03-.54.03-.37,0-.75-.04-1.14-.13-.59-.13-1.16-.31-1.72-.54-.56-.23-1.01-.42-1.36-.58-.4-.19-.77-.34-1.1-.46-.33-.12-.63-.27-.9-.46-.38-.16-.71-.33-1-.5-.29-.17-.6-.34-.92-.5-.13-.05-.26-.11-.38-.16-.12-.05-.25-.11-.38-.16-.13-.13-.29-.23-.46-.28s-.33-.15-.46-.28c-.35-.13-.72-.31-1.12-.52-.21.13-.43.24-.66.32s-.45.17-.66.28c-.19.08-.37.17-.56.26s-.39.17-.6.22c-.16.05-.29.13-.4.22-.11.09-.23.17-.36.22-.32.16-.65.31-.98.46-.33.15-.67.29-1.02.42-.29.11-.59.24-.9.4-.31.16-.63.33-.98.52-.29.11-.56.21-.8.32s-.49.21-.76.32c-.35.16-.74.29-1.18.38-.28.06-.55.09-.81.09-.15,0-.3,0-.45-.03-.4-.05-.75-.2-1.06-.44-.31-.24-.49-.61-.54-1.12,0-.13,0-.27.02-.42s.05-.3.1-.46c.05-.16.11-.33.18-.5.07-.17.15-.34.26-.5.16-.11.33-.21.5-.32.17-.11.34-.21.5-.32l2.76-1.36c.21-.16.42-.28.62-.36s.38-.19.54-.32c.21-.05.42-.13.62-.22.2-.09.43-.19.7-.3.13-.08.25-.15.34-.2.09-.05.21-.11.34-.16.16-.13.31-.23.46-.28.15-.05.3-.11.46-.16h-5.22c-.6,0-1.09-.12-1.46-.36-.13-.05-.25-.15-.36-.3s-.23-.31-.36-.5c-.11-.11-.17-.23-.2-.38-.03-.15-.07-.31-.12-.5,0-.16.02-.31.06-.44.04-.13.09-.27.14-.4.21-.4.49-.69.84-.88.35-.19.73-.31,1.14-.38.35-.05.69-.08,1.04-.08.07,0,.13,0,.2,0,.14,0,.27,0,.4,0,.26,0,.5,0,.73-.03h4.8v-1.24c0-.61.26-1.08.78-1.4.52-.32,1.11-.49,1.76-.52.06,0,.12,0,.18,0M67.51,21.08c.19,0,.39.03.6.08.21.05.4.11.56.16.48.11.85.33,1.12.68.27.35.42.72.46,1.12.04.4-.04.79-.24,1.16-.2.37-.53.65-.98.84-.64.21-1.25.33-1.82.34-.57.01-1.17.05-1.78.1h-7.92v2.2h6.12c.29,0,.56,0,.8.02s.51.05.8.1c.85.08,1.53.32,2.02.72.49.4.78,1.05.86,1.96.05.24.08.49.08.76v2.6c0,.29-.01.59-.04.9-.03.31-.04.61-.04.9-.08.45-.16.93-.24,1.42s-.31.91-.68,1.26c-.27.21-.59.33-.98.36s-.77.04-1.14.04h-3.34c-.97,0-2.09,0-3.34-.02-1.25-.01-2.54-.02-3.84-.02-3.04,0-6.51-.01-10.4-.04-.4,0-.79-.03-1.16-.08s-.71-.17-1-.36c-.21-.13-.38-.29-.5-.46-.12-.17-.25-.43-.38-.78-.16-.56-.21-1.14-.16-1.74.05-.6.08-1.18.08-1.74v-1.88c0-.45.07-1.05.2-1.8.08-.4.24-.74.48-1.02.24-.28.53-.5.86-.66.33-.16.69-.27,1.08-.34s.77-.1,1.14-.1h7.24v-2.28h-5.44c-.51,0-1.01,0-1.52-.02-.51-.01-1-.06-1.48-.14-.29,0-.61,0-.96.02-.17,0-.35.01-.53.01s-.35,0-.54-.01c-.36-.01-.71-.05-1.04-.12-.33-.07-.62-.18-.86-.34-.27-.13-.47-.33-.6-.6s-.21-.55-.24-.84,0-.58.08-.86.21-.51.4-.7c.32-.29.72-.5,1.2-.62.48-.12.95-.18,1.4-.18h25.6M47.8,31.98c-.09,0-.19,0-.28-.01-.28-.03-.55-.04-.82-.04-.11,0-.22.02-.34.06-.12.04-.21.06-.26.06s-.11.03-.16.08c-.05.05-.08.17-.08.36-.03.03-.05.13-.06.3-.01.17-.02.37-.02.58v.88c0,.11.01.17.04.2,0,.03.01.04.04.04.11.08.23.12.36.12.61.05,1.21.08,1.8.08h1.84c.96.05,1.88.09,2.76.1.88.01,1.75.02,2.62.02s1.75,0,2.64-.02c.89-.01,1.85-.05,2.86-.1h.9c.2,0,.38,0,.54-.02.16-.01.27-.03.32-.06.4-.05.61-.24.64-.56.03-.32.04-.67.04-1.04,0-.21-.08-.43-.24-.64-.19-.21-.43-.32-.72-.32-.21,0-.39-.02-.54-.06s-.27-.06-.38-.06h-12.96c-.18.04-.36.05-.54.05M54.3,0c-.12,0-.25,0-.38,0-1.52.06-2.92.49-4.18,1.26-.82.51-1.5,1.15-2.02,1.9h-1.32c-.11.02-.23.03-.36.03-.07,0-.15,0-.23,0-.14,0-.26,0-.37,0-.6,0-1.22.05-1.82.14-.98.16-1.88.46-2.72.91-1.23.66-2.22,1.68-2.9,2.94l-.13.24-.1.25c-.11.27-.21.55-.29.82-.18.63-.27,1.25-.27,1.88v.69l.19.67.02.07c.11.6.32,1.17.61,1.69l-.1.15c-.31.47-.57.97-.77,1.48-.09.24-.18.48-.26.72-.17.5-.28,1.03-.33,1.56,0,.09-.02.18-.02.28-.22.16-.43.33-.63.52l-.09.08-.08.08c-.79.79-1.35,1.75-1.66,2.85-.25.87-.33,1.77-.25,2.68.08.92.34,1.81.75,2.63.43.86,1.03,1.59,1.77,2.16-.02.07-.03.14-.05.21v.05s-.02.05-.02.05c-.19,1.05-.28,1.92-.28,2.68v1.88c0,.41-.02.85-.06,1.29-.11,1.21,0,2.41.33,3.56l.06.21.08.2c.28.73.58,1.32.94,1.83.52.74,1.17,1.36,1.96,1.86.86.55,1.86.91,2.94,1.07.6.09,1.23.13,1.87.13,3.9.03,7.41.04,10.4.04,1.29,0,2.55,0,3.79.02,1.27.01,2.4.02,3.39.02h3.34c.48,0,.98-.02,1.48-.05,1.4-.1,2.71-.6,3.77-1.45l.14-.11.13-.12c1.19-1.1,1.95-2.53,2.21-4.12.08-.47.15-.92.23-1.35l.08-.43v-.44c0-.14,0-.3.02-.45.04-.48.06-.92.06-1.35v-2.6c0-.51-.04-1.01-.13-1.5-.05-.44-.13-.84-.23-1.22.65-.55,1.19-1.21,1.59-1.97.66-1.23.94-2.62.8-4-.14-1.35-.65-2.61-1.48-3.69-.41-.54-.9-1.01-1.45-1.39-.11-1.03-.45-2.04-1-2.93-.11-.17-.22-.35-.35-.51.7-1.04,1.34-2.65.97-4.88l-.02-.1-.02-.1c-.2-.98-.59-1.87-1.16-2.65-.38-.51-.8-.97-1.26-1.36-.7-.6-1.49-1.05-2.34-1.33-.43-.14-.91-.27-1.42-.36-.72-.15-1.46-.22-2.21-.22-.19,0-.37,0-.56.01-.44.02-.89.03-1.35.03h-.74c-.67-.99-1.61-1.79-2.77-2.33-1.19-.55-2.46-.83-3.78-.83h0Z"/>
      </g>
      <g>
        <path class="cls-2" d="M91.55,41.14c-1.15,0-2.39,0-3.7-.02l-3.68-.04c-1.14-.01-2.12-.02-2.93-.02h-1.56c-.64,0-1.32-.05-2.02-.14-1.02-.14-1.94-.52-2.74-1.13-.64-.52-1.1-1.11-1.43-1.8-.25-.53-.44-1.06-.56-1.59-.1-.45-.17-.86-.21-1.23-.04-.41-.05-.64-.05-.69v-4.38c0-.43,0-.81.02-1.17.01-.28.02-.5.02-.67v-.34c0-.69.13-1.36.38-1.99.02-.06.05-.13.08-.19,0,0,0,0,0,0-.54-.46-.97-1.02-1.28-1.67-.27-.57-.46-1.19-.54-1.85-.07-.5-.1-.99-.1-1.45,0-.55,0-1.16-.02-1.83l-.04-2.12c-.01-.73-.02-1.46-.02-2.18s.01-1.42.04-2.02c.02-.33.03-.62.02-.92-.02-.47,0-.96.02-1.44.03-.48.09-.97.17-1.44.11-.64.31-1.25.61-1.79.39-.72.96-1.32,1.68-1.77.67-.41,1.38-.66,2.13-.74.17-.02.35-.03.52-.03.58,0,1.16.1,1.71.31.88.33,1.61.93,2.12,1.75.67,1.14,1.01,2.4,1.03,3.78,0,.08,0,.16,0,.24h2.06c0-.16,0-.33,0-.5,0-.67.1-1.37.3-2.16.38-1.48,1.22-2.29,1.86-2.72.63-.46,1.5-.73,2.52-.76h.16c1,0,1.87.26,2.58.77.71.52,1.23,1.23,1.55,2.12.2.58.34,1.16.42,1.74.1.6.15,1.25.15,1.92v.43c.07-.02.14-.04.21-.06.29-.07.6-.11,1.09-.13.03,0,.06,0,.1,0v-.97c-.03-.37-.03-.74-.02-1.1.02-.47.1-.95.22-1.42.05-.19.11-.42.17-.63.15-.53.44-1.04.85-1.52.54-.65,1.28-1.12,2.15-1.36.47-.13.97-.2,1.48-.2.24,0,.48.01.74.04,2.32.36,3.24,1.64,3.6,2.4.29.59.47,1.28.54,2.04.05.58.07.94.07,1.07v15.54h-.75s-.04.07-.06.1c.37.58.56,1.24.56,1.94v1.09c-.05,1.15-.05,2.35,0,3.57.06,1.41.01,2.81-.13,4.15-.04.56-.17,1.13-.38,1.64-.18.43-.42.85-.74,1.29-.5.73-1.2,1.28-2.04,1.59-.54.2-1.1.34-1.68.42-.52.07-1.03.1-1.53.1-.28,0-.53,0-.75.02-.32.05-.84.1-1.9.12-.85.01-1.86.02-3.02.02ZM94.45,26.7c.11-.5.28-.96.52-1.38.01-.03.03-.05.04-.08-.06-.1-.11-.2-.16-.31-.26-.49-.43-1-.53-1.52-.07-.37-.12-.74-.15-1.11v-.11s0-1.75,0-1.75l-.7-.05c-.24-.02-.47-.05-.7-.1v1.82c0,.69-.18,1.37-.53,2.01-.27.49-.62.94-1.02,1.32-.36.34-.78.64-1.23.89-.27.15-.55.27-.83.37h5.3Z"/>
        <path class="cls-1" d="M99.02,6.5c.14,0,.29,0,.44.03.85.13,1.4.47,1.64,1,.16.32.26.71.3,1.18s.06.75.06.86v13.04h-.04s-.01.12-.04.28c-.03.16-.08.35-.16.58s-.2.46-.36.7-.37.44-.64.6c-.37.21-.75.32-1.12.32-.45,0-.89-.15-1.32-.44-.32-.21-.55-.48-.68-.8-.16-.29-.27-.59-.32-.88-.05-.29-.09-.59-.12-.88v-4.04h-.96c-.77-.05-1.47-.1-2.08-.14s-1.09-.33-1.44-.86c-.16-.27-.24-.6-.24-1s.03-.75.08-1.04c.08-.29.23-.54.44-.74.21-.2.59-.37,1.12-.5.11-.03.31-.05.6-.06.29-.01.61-.03.94-.06.33-.03.65-.05.94-.06.29-.01.49-.02.6-.02v-3.44c-.03-.29-.03-.59-.02-.88.01-.29.06-.59.14-.88.05-.21.11-.41.16-.6.05-.19.17-.39.36-.6.21-.27.51-.45.9-.56.26-.07.53-.11.82-.11M88.08,6.9c.46,0,.83.1,1.11.3.29.21.51.53.66.94.15.41.25.83.3,1.26.08.48.12,1,.12,1.56v11.16c0,.27-.07.53-.22.8-.15.27-.33.5-.54.7-.21.2-.45.37-.72.52-.27.15-.52.23-.76.26-.46.07-.88.11-1.25.11-.18,0-.35,0-.51-.03-.48-.05-1.05-.08-1.72-.08-1.47,0-2.93-.01-4.38-.04s-2.9-.07-4.34-.12c-.43-.03-.78-.16-1.06-.4-.28-.24-.5-.53-.66-.86s-.27-.7-.32-1.1c-.05-.4-.08-.77-.08-1.12,0-.56,0-1.19-.02-1.88-.01-.69-.03-1.4-.04-2.12-.01-.72-.02-1.43-.02-2.14s.01-1.34.04-1.9c.03-.35.03-.72.02-1.12-.01-.4,0-.8.02-1.2.03-.4.07-.79.14-1.18.07-.39.18-.73.34-1.02.19-.35.45-.63.8-.84.35-.21.71-.34,1.08-.38.09,0,.17-.01.26-.01.28,0,.57.05.84.15.36.13.65.37.86.72.43.72.65,1.55.66,2.5.01.95,0,1.85-.02,2.7h7.08c.05-.59.07-1.11.04-1.56s-.04-.93-.04-1.44c0-.45.07-.97.22-1.54.15-.57.42-.99.82-1.26.29-.21.69-.33,1.2-.34.03,0,.06,0,.09,0M79.78,20.23c.1,0,.2,0,.31,0,.31-.01.61-.02.9-.02h4.76v-.24c0-.08,0-.17-.02-.26-.01-.09,0-.21.02-.34.05-.37.08-.7.08-.98s-.03-.61-.08-.98v-.68h-4.04c-.43-.03-.83-.05-1.2-.08-.21-.02-.44-.03-.67-.03-.11,0-.23,0-.35,0-.36.01-.66.05-.9.1-.05.45-.06.9-.02,1.34.04.44.07.89.1,1.34,0,.29.01.49.04.6.03.11.19.17.48.2.19.02.39.03.59.03M99.14,25.83c.13,0,.26,0,.4,0,.56.03.99.17,1.28.44.27.24.4.53.4.86v.98c-.05,1.23-.05,2.49,0,3.78.05,1.29.01,2.55-.12,3.78-.03.37-.09.69-.2.94-.11.25-.27.53-.48.82-.21.32-.5.55-.86.68-.36.13-.74.23-1.14.28-.4.05-.8.08-1.2.08s-.76.01-1.08.04c-.24.05-.78.09-1.62.1-.84.01-1.83.02-2.98.02s-2.37,0-3.68-.02c-1.31-.01-2.53-.03-3.68-.04-1.15-.01-2.13-.02-2.96-.02h-1.56c-.53,0-1.09-.04-1.68-.12-.59-.08-1.11-.29-1.56-.64-.29-.24-.53-.54-.7-.9-.17-.36-.3-.71-.38-1.06-.08-.35-.13-.65-.16-.92-.03-.27-.04-.41-.04-.44v-4.38c0-.39,0-.74.02-1.06s.02-.58.02-.78v-.34c0-.37.07-.73.2-1.06.13-.33.39-.58.76-.74.19-.08.39-.13.62-.16.23-.03.45-.05.66-.08.06,0,.12,0,.18,0,.39,0,.8.08,1.2.23.47.17.75.53.86,1.06v1.44c.05.39.14.58.27.58,0,0,0,0,.01,0,.04,0,.1,0,.16,0,.13,0,.3,0,.52.03h16.2v-1.44c.03-.48.13-.89.32-1.22.19-.33.52-.54,1-.62.28-.06.61-.09,1-.09M80.69,34.95c.2,0,.42,0,.66-.03.75,0,1.56,0,2.44.02.88.01,1.72.03,2.52.06h.78c.44,0,.97,0,1.6-.02.63-.01,1.31-.02,2.04-.02s1.41,0,2.04-.02c.63-.01,1.16-.02,1.6-.02h.78c.13,0,.29.01.48.04.09.01.18.02.27.02s.17,0,.25-.02c.16-.03.29-.09.4-.2s.16-.27.16-.48.01-.4.04-.56c.03-.16-.04-.33-.2-.52-.19-.21-.41-.33-.66-.36-.13-.01-.26-.02-.39-.02s-.26,0-.39.02h-3.48c-.96,0-2,0-3.12-.02-1.12-.01-2.15-.02-3.1-.02h-3.38c-.24,0-.5,0-.78-.02-.07,0-.14,0-.2,0-.2,0-.38.02-.54.05-.21.04-.39.12-.54.24-.15.12-.22.3-.22.54,0,.29.01.51.04.64.13.45.34.69.62.7.09,0,.19,0,.28,0M99.02,1.5c-.73,0-1.46.1-2.15.29-1.36.37-2.53,1.12-3.4,2.16-.08.09-.15.18-.22.27-.34-.39-.71-.74-1.13-1.05-1.15-.83-2.54-1.26-4.06-1.26-.07,0-.15,0-.22,0-1.5.04-2.81.46-3.92,1.23-.72.49-1.33,1.11-1.81,1.84-.79-1.18-1.9-2.05-3.22-2.54-.84-.31-1.71-.47-2.58-.47-.26,0-.53.01-.79.04-1.12.12-2.18.49-3.17,1.09-1.1.68-1.99,1.62-2.59,2.74-.41.75-.7,1.62-.86,2.54-.09.54-.16,1.12-.2,1.69-.04.57-.05,1.14-.03,1.7,0,.21,0,.4,0,.57v.07s0,.07,0,.07c-.03.64-.05,1.36-.05,2.14s0,1.48.02,2.23l.04,2.12c.01.65.02,1.25.02,1.78,0,.57.04,1.17.12,1.79.12.92.38,1.8.77,2.6.21.43.46.84.74,1.23-.1.5-.15,1.02-.15,1.55v.34c0,.15,0,.33-.02.57-.02.38-.02.81-.02,1.27v4.38c0,.26.02.47.07.95.05.46.13.97.26,1.54.16.7.41,1.41.75,2.11.49,1.02,1.18,1.89,2.04,2.6l.06.05.06.05c1.15.88,2.47,1.43,3.92,1.62.81.11,1.6.17,2.36.17h1.56c.81,0,1.78,0,2.9.02h.22s3.47.04,3.47.04c1.33.01,2.57.02,3.73.02s2.19,0,3.06-.02c.95-.02,1.6-.05,2.13-.13.12,0,.28-.01.5-.01.61,0,1.23-.04,1.85-.12.77-.1,1.51-.29,2.22-.55,1.32-.49,2.43-1.35,3.22-2.5.42-.59.75-1.16,1-1.75.31-.73.5-1.54.57-2.42.15-1.44.2-2.94.14-4.45-.05-1.15-.05-2.28,0-3.36v-.11s0-.11,0-.11v-.52h.2l.04-5v-13.04c0-.24-.01-.53-.08-1.29-.09-1.07-.35-2.05-.77-2.91-.58-1.23-2.03-3.26-5.38-3.78h-.09s-.09-.03-.09-.03c-.34-.04-.69-.06-1.03-.06h0Z"/>
      </g>
      <g>
        <path class="cls-2" d="M117.58,38.52c-.41,0-.84-.01-1.27-.04-1.17-.07-2.21-.47-3.07-1.19l-.09-.08c-1.37-1.24-1.66-2.63-1.66-3.57,0-.83.23-1.66.68-2.47.52-.92,1.29-1.61,2.21-1.98.41-.16.78-.28,1.13-.35.25-.05.51-.09.76-.13.14-.02.29-.03.45-.04v-4.36c0-.46.07-.94.21-1.42.12-.44.31-.88.58-1.32.32-.52.76-.99,1.32-1.4.72-.5,1.49-.79,2.32-.9.23-.03.45-.04.67-.04.57,0,1.14.09,1.67.28.79.27,1.47.72,2.03,1.34.17.19.32.39.46.6.3-.46.72-.89,1.24-1.27.73-.51,1.49-.8,2.32-.9.23-.03.45-.04.67-.04.57,0,1.13.09,1.67.28.32.11.62.25.91.42,0-.03,0-.2,0-.2.02-.51.01-1.09-.04-1.73-.05-.73-.08-1.41-.09-2.02h-.2c-.15.02-.3.03-.45.03-.13,0-.26,0-.39-.02-.04,0-.09,0-.15,0h-4.24c-.45,0-.83.02-1.12.05-.47.05-1.02.07-1.64.07-.57,0-1.07,0-1.5-.02h-.17c-.28,0-.58.01-.92.05-.15.02-.36.03-.53.03-.23,0-.44-.02-.65-.06h-2.07c-.63,0-1.3-.08-2.05-.24-1.21-.25-2.22-.93-2.91-1.96l-.08-.13c-.35-.61-.58-1.28-.68-2.01-.1-.74-.05-1.47.16-2.18.42-1.46,1.41-2.58,2.86-3.23l.12-.05.59-.2c.19-.06.4-.13.62-.19.74-.2,1.33-.29,1.85-.32.33-.01,1.4-.06,1.4-.06h.56c.05,0,.12,0,.2-.02l.16-.02h.3c.2-.03.44-.04.78-.04h2.86c.72,0,1.49,0,2.3.02.78.01,1.52.02,2.22.02.73,0,1.37,0,1.91.02.49.01,1,.02,1,.02h.08c.35.03.7.04,1.07.04h1.28c.53,0,1.05.01,1.56.04.51.03,1.03.07,1.56.13l.17.02.16.04c.11.03.22.05.34.06.57.07,1.12.26,1.63.57.69.39,1.25.98,1.63,1.7.25.48.44.99.58,1.53.13.5.22,1.02.25,1.55.03.45.05.84.05,1.18s0,.67.02.98c.01.36.02.73.02,1.11.03.53.04,1.14.04,1.82s-.01,1.35-.04,1.89c-.02,1.01-.04,2.08-.06,3.12-.01,1.04-.02,2.11-.02,3.19,0,.58-.06,1.17-.17,1.74-.15.76-.46,1.49-.94,2.16l-.07.09c-.06.08-.12.15-.19.23.46.07.9.17,1.31.3.74.23,1.45.65,2.1,1.25.85.73,1.36,1.89,1.36,3.19,0,.52-.08,1.06-.23,1.61-.19.69-.49,1.27-.89,1.73l-.07.08-.07.07c-.48.48-1.06.84-1.72,1.07-.47.16-.94.28-1.42.34-.41.05-.79.08-1.12.08h-21.99s-.11,0-.11,0c-.18.02-.38.03-.58.03-.26.01-.52.02-.79.02Z"/>
        <path class="cls-1" d="M125.4,7.96c.71,0,1.46,0,2.26.02.8.01,1.55.02,2.26.02s1.32,0,1.84.02c.52.01.85.02.98.02.4.03.81.04,1.24.04h1.28c.48,0,.95.01,1.42.04.47.03.94.07,1.42.12.21.05.43.09.66.12s.45.11.66.24c.29.16.52.39.68.7.16.31.29.64.38,1,.09.36.15.73.18,1.1.03.37.04.71.04,1,0,.37,0,.73.02,1.08.01.35.02.71.02,1.08.03.51.04,1.09.04,1.76s-.01,1.25-.04,1.76c-.03,1.09-.05,2.17-.06,3.22-.01,1.05-.02,2.13-.02,3.22,0,.43-.04.85-.12,1.26-.08.41-.25.81-.52,1.18-.29.37-.65.63-1.08.78-.22.08-.45.12-.68.12-.21,0-.42-.03-.64-.1-.53-.13-.93-.37-1.18-.7-.25-.33-.44-.72-.56-1.16-.12-.44-.19-.91-.22-1.4-.03-.49-.07-.95-.12-1.38-.16-1.12-.24-2.21-.24-3.28.03-.61.01-1.29-.04-2.02-.05-.73-.08-1.39-.08-1.98,0-.45-.03-.89-.08-1.3-.05-.41-.27-.73-.64-.94-.16-.08-.35-.12-.56-.12h-1.6c-.09.02-.18.03-.27.03-.04,0-.09,0-.13,0-.13-.01-.27-.02-.4-.02h-4.24c-.53,0-.99.02-1.38.06-.39.04-.85.06-1.38.06s-1.01,0-1.42-.02c-.08,0-.16,0-.25,0-.35,0-.74.02-1.17.06-.11.01-.2.02-.29.02s-.15,0-.21-.02c-.12-.03-.29-.04-.5-.04h-2c-.45,0-.97-.06-1.54-.18-.57-.12-1.02-.42-1.34-.9-.19-.32-.31-.68-.36-1.08-.05-.4-.03-.79.08-1.16.21-.75.71-1.29,1.48-1.64.16-.05.32-.11.48-.16s.33-.11.52-.16c.51-.13.93-.21,1.26-.22.33-.01.77-.03,1.3-.06h.56c.13,0,.31-.01.52-.04.21,0,.36,0,.44-.02s.24-.02.48-.02h2.86M130.22,21.74c.3,0,.58.05.86.14.39.13.72.35,1,.66.28.31.43.69.46,1.14,0,.24,0,.63.02,1.16.01.53.03,1.15.04,1.84.01.69.03,1.43.04,2.22.01.79.02,1.54.02,2.26.69-.03,1.51-.04,2.46-.04s1.87.01,2.78.04c.19.01.38.02.57.02.28,0,.56-.01.83-.04.19-.02.38-.02.57-.02.25,0,.5.02.75.05.05.02.11.03.16.03.03,0,.05,0,.08,0,.08-.01.16-.02.24-.02.45.05.87.14,1.26.26s.77.35,1.14.7c.37.32.56.77.56,1.36,0,.29-.05.61-.14.94-.09.33-.22.59-.38.78-.21.21-.47.37-.78.48s-.61.18-.92.22c-.31.04-.57.06-.8.06h-21.98c-.13,0-.26,0-.38.02-.12.01-.25.02-.38.02-.24.01-.48.02-.72.02-.36,0-.73-.01-1.12-.04-.64-.04-1.19-.25-1.64-.62-.56-.51-.84-1.08-.84-1.72,0-.4.12-.81.36-1.24s.56-.72.96-.88c.27-.11.5-.18.7-.22.2-.04.4-.07.6-.1s.41-.04.64-.04h2.02c-.03-.11-.04-.25-.04-.44v-6.4c0-.24.04-.49.12-.76.05-.21.15-.44.3-.68s.37-.47.66-.68c.35-.24.73-.39,1.16-.44.12-.02.24-.02.36-.02.3,0,.58.05.86.14.39.13.72.35,1,.66s.43.69.46,1.14c0,.24,0,.63.02,1.16.01.53.03,1.15.04,1.84.01.69.03,1.43.04,2.2.01.77.02,1.52.02,2.24.59,0,1.16,0,1.72.02.56.01,1.12.02,1.68.02-.03-.11-.04-.25-.04-.44v-6.4c0-.24.04-.49.12-.76.05-.21.15-.44.3-.68.15-.24.37-.47.66-.68.35-.24.73-.39,1.16-.44.12-.02.24-.02.36-.02M125.4,2.96h-2.86c-.38,0-.67.01-.94.04h-.3l-.31.04h-.7c-.51.03-.93.05-1.25.06-.71.03-1.47.15-2.33.38h-.05s-.05.03-.05.03c-.26.08-.5.15-.73.22l-.45.15-.25.08-.24.11c-2.12.95-3.62,2.67-4.24,4.83-.3,1.03-.37,2.11-.23,3.2.14,1.05.47,2.04.99,2.93l.08.13.09.13c1.04,1.56,2.63,2.63,4.47,3.02.29.06.58.11.86.15-.65.53-1.18,1.14-1.59,1.81-.39.63-.67,1.29-.85,1.95-.2.7-.3,1.4-.3,2.09v2.28c-.25.08-.51.17-.77.28-1.46.58-2.66,1.64-3.46,3.07-.67,1.18-1,2.42-1,3.69,0,2.05.88,3.98,2.48,5.43l.09.08.09.08c1.26,1.04,2.82,1.64,4.51,1.75.48.03.96.05,1.43.05.29,0,.57,0,.85-.02.24,0,.47-.02.71-.04h21.91c.45,0,.92-.03,1.45-.1.64-.08,1.28-.24,1.91-.46,1.02-.35,1.92-.91,2.67-1.66l.14-.14.13-.15c.63-.74,1.1-1.64,1.39-2.67.22-.78.33-1.55.33-2.29,0-2.01-.79-3.81-2.22-5.08-.48-.44-.99-.81-1.52-1.11.05-.18.09-.37.13-.56.14-.72.21-1.47.21-2.21,0-1.07,0-2.12.02-3.16.01-1.02.03-2.05.06-3.1.03-.58.04-1.23.04-1.95s-.01-1.32-.04-1.89c0-.39,0-.77-.02-1.13-.01-.3-.02-.59-.02-.9,0-.4-.02-.84-.05-1.34-.05-.7-.16-1.37-.33-2.02-.19-.73-.45-1.41-.78-2.05-.6-1.15-1.49-2.08-2.59-2.71-.81-.48-1.69-.78-2.61-.89l-.33-.08-.35-.04c-.54-.06-1.11-.11-1.68-.14-.57-.03-1.15-.05-1.71-.05h-1.28c-.32,0-.62,0-.9-.03h-.17s-.17-.01-.17-.01c-.12,0-.4,0-.85-.02-.56-.01-1.21-.02-1.97-.02-.68,0-1.4,0-2.17-.02-.83-.01-1.61-.02-2.35-.02h0Z"/>
      </g>
      <g>
        <path class="cls-2" d="M162.58,41.42c-1.91,0-3.73-.08-5.42-.23-1.83-.17-3.47-.51-4.88-1.02-1.59-.58-2.89-1.44-3.88-2.55-1.12-1.26-1.69-2.9-1.69-4.85,0-1.82.57-3.39,1.69-4.65.43-.49.92-.92,1.47-1.32-.31.05-.62.07-.93.07h-.34c-.35,0-.71-.06-1.07-.18-1.46-.38-2.21-1.19-2.59-1.84-.49-.81-.66-1.74-.49-2.71.11-.64.32-1.23.61-1.76l.08-.14.09-.13c.27-.38.59-.75.93-1.12.25-.27.51-.54.76-.82.28-.31.7-.73,1.27-1.27.51-.49,1.03-.99,1.56-1.5.45-.44.87-.84,1.26-1.21-.24,0-1.02.02-1.13.02-.45,0-.89-.03-1.33-.09-.68-.09-1.33-.28-1.93-.58-.88-.44-1.54-1.16-1.94-2.11-.23-.52-.38-1.1-.45-1.72-.07-.67-.03-1.31.12-1.92.34-1.21,1.13-2.07,2.23-2.5.54-.21,1.08-.36,1.61-.44l.19-.03s3.54,0,3.59,0l.12-.04h9.76c1.23,0,2.26.08,3.15.24,1.29.24,2.41.87,3.24,1.84.08.1.16.2.23.3,0-.03.02-.06.03-.09.15-.53.44-1.04.85-1.52.54-.65,1.28-1.12,2.15-1.36.47-.13.97-.2,1.48-.2.24,0,.48.01.74.04.74.1,1.4.31,1.98.63.76.41,1.36,1.01,1.72,1.73.3.6.49,1.3.56,2.09.05.58.07.94.07,1.07v16.22h-.75c-.08.15-.18.3-.28.45-.25.37-.55.7-.9.99.23.21.44.42.64.65,1.12,1.27,1.69,2.91,1.69,4.89s-.57,3.59-1.69,4.85c-.98,1.11-2.29,1.97-3.87,2.55-1.4.51-3.04.86-4.88,1.02-1.69.15-3.52.23-5.42.23ZM156.57,22.25c-.1.09-.2.2-.29.3l-.07.08c-.36.38-.73.78-1.11,1.17-.43.44-.91.86-1.44,1.26,1.04-.29,2.19-.52,3.43-.66.5-.06,1.01-.11,1.53-.15-.14-.13-.29-.26-.42-.4-.43-.42-.87-.85-1.31-1.29-.1-.1-.21-.21-.32-.33ZM162.47,14.35c.02-.05.04-.11.06-.16-.08,0-.16,0-.25,0l.18.16Z"/>
        <path class="cls-1" d="M172.98,6.5c.14,0,.29,0,.44.03.4.05.76.17,1.08.34.32.17.55.39.68.66.16.32.26.71.3,1.18s.06.75.06.86v13.72h-.04s-.01.12-.04.28c-.03.16-.08.35-.16.58-.08.23-.2.46-.36.7-.16.24-.37.44-.64.6-.37.21-.79.32-1.24.32s-.89-.15-1.32-.44c-.32-.21-.55-.48-.68-.8-.16-.29-.27-.59-.32-.88-.05-.29-.09-.59-.12-.88v-4.32h-2.16c-.77-.05-1.47-.1-2.08-.14-.61-.04-1.09-.33-1.44-.86-.16-.27-.24-.61-.24-1.04s.03-.79.08-1.08c.08-.29.23-.54.44-.74.21-.2.59-.37,1.12-.5.11-.03.37-.05.78-.06s.86-.03,1.34-.04c.48-.01.93-.03,1.36-.04s.69-.02.8-.02v-3.8c-.03-.29-.03-.59-.02-.88.01-.29.06-.59.14-.88.05-.21.11-.41.16-.6.05-.19.17-.39.36-.6.21-.27.51-.45.9-.56.26-.07.53-.11.82-.11M161.86,7.28c1.07,0,1.97.07,2.7.2.73.13,1.33.47,1.78,1,.13.16.22.37.26.64s.04.54,0,.82c-.04.28-.12.54-.24.78-.12.24-.29.41-.5.52-.21.08-.47.17-.76.26-.29.09-.55.15-.76.18-.25.02-.5.03-.76.03-.13,0-.26,0-.38,0-.39-.01-.77-.02-1.14-.02h-2.64c-.03.64-.04,1.16-.04,1.56s0,.77.02,1.12c.01.35.02.55.02.6.13.13.37.35.72.66.35.31.64.57.88.78.27.21.54.45.82.7.28.25.57.53.86.82.19.19.36.37.52.54.16.17.31.33.44.46.51.51,1.01,1.05,1.52,1.64.51.59.85,1.19,1.04,1.8.08.24.09.51.04.8-.05.29-.23.55-.52.76-.45.27-.93.4-1.44.4-.59,0-1.15-.12-1.68-.36s-.96-.48-1.28-.72c-.51-.37-.97-.77-1.4-1.18-.43-.41-.85-.83-1.28-1.26-.29-.29-.63-.63-1-1.02s-.75-.73-1.12-1.02l-1.08,1.08c-.19.19-.37.37-.56.54-.19.17-.36.35-.52.54-.35.37-.71.75-1.08,1.14-.37.39-.8.75-1.28,1.1-1.09.8-2.12,1.2-3.08,1.2h-.34c-.09,0-.21-.03-.34-.08-.59-.13-.97-.37-1.16-.72-.19-.29-.25-.63-.18-1,.07-.37.18-.71.34-1,.21-.29.45-.58.72-.86s.53-.57.8-.86c.24-.27.62-.65,1.14-1.14.52-.49,1.05-1,1.58-1.52.53-.52,1.03-.99,1.48-1.42.45-.43.73-.69.84-.8v-3.28h-2.56c-.32,0-.69,0-1.12.02-.09,0-.17,0-.26,0-.34,0-.67-.02-1-.06-.41-.05-.79-.17-1.14-.34-.35-.17-.6-.46-.76-.86-.13-.29-.22-.63-.26-1s-.02-.72.06-1.04c.11-.37.35-.63.72-.78s.73-.25,1.08-.3h3.2c.4,0,.64-.01.72-.04h9.36M162.58,26.6c1.84,0,3.57.07,5.2.2,1.63.13,3.04.42,4.24.86s2.15,1.06,2.86,1.86c.71.8,1.06,1.88,1.06,3.24s-.35,2.4-1.06,3.2c-.71.8-1.66,1.42-2.86,1.86-1.2.44-2.61.73-4.24.88-1.63.15-3.36.22-5.2.22s-3.57-.07-5.2-.22c-1.63-.15-3.04-.44-4.24-.88-1.2-.44-2.15-1.06-2.86-1.86-.71-.8-1.06-1.87-1.06-3.2,0-1.2.35-2.2,1.06-3,.71-.8,1.66-1.43,2.86-1.9s2.61-.79,4.24-.98c1.63-.19,3.36-.28,5.2-.28M162.58,34.72h2.82c.95,0,1.8-.05,2.56-.16.76-.11,1.38-.3,1.86-.58.48-.28.72-.69.72-1.22,0-.45-.24-.81-.72-1.08-.48-.27-1.1-.47-1.86-.6-.76-.13-1.61-.22-2.56-.26-.95-.04-1.89-.06-2.82-.06s-1.86.02-2.78.06-1.75.13-2.48.26c-.73.13-1.33.33-1.78.6-.45.27-.68.63-.68,1.08,0,.4.23.73.68,1,.45.27,1.05.47,1.78.6.73.13,1.56.23,2.48.28s1.85.08,2.78.08M172.98,1.5c-.73,0-1.46.1-2.15.29-1.12.31-2.12.87-2.92,1.64-.75-.41-1.58-.7-2.46-.86-1.04-.19-2.22-.28-3.6-.28h-10.16l-.12.04h-3.38l-.38.06c-.71.11-1.43.31-2.14.59-1.82.71-3.17,2.2-3.7,4.06l-.02.08-.02.08c-.22.89-.28,1.83-.18,2.79.09.87.31,1.69.64,2.44.63,1.49,1.71,2.66,3.12,3.36.05.03.11.05.17.08-.24.24-.43.44-.6.63-.23.26-.47.52-.71.77-.42.44-.81.91-1.15,1.37l-.19.26-.15.28c-.42.77-.72,1.62-.88,2.52-.27,1.54.01,3.11.8,4.43.4.67,1.13,1.61,2.4,2.31-.65,1.3-.98,2.77-.98,4.33,0,3.22,1.26,5.32,2.31,6.51,1.26,1.42,2.9,2.51,4.88,3.24,1.61.59,3.46.98,5.51,1.17,1.77.16,3.67.24,5.65.24s3.88-.08,5.65-.24c2.05-.18,3.91-.58,5.51-1.16,1.98-.73,3.63-1.82,4.89-3.24,1.06-1.2,2.31-3.3,2.31-6.51,0-1.85-.41-3.33-.95-4.48h.51l.04-5v-13.72c0-.24-.01-.53-.08-1.29-.09-1.1-.37-2.11-.81-2.99-.59-1.18-1.55-2.15-2.77-2.81-.85-.46-1.79-.77-2.8-.9h-.04s-.04,0-.04,0c-.34-.04-.69-.06-1.03-.06h0Z"/>
      </g>
      <g>
        <path class="cls-2" d="M41.17,87.8c-1.1-.02-2.19-.16-3.26-.44-1.08-.28-2.12-.69-3.11-1.22-1.02-.55-1.96-1.26-2.8-2.09-1-.96-1.85-2.12-2.5-3.42-.61-1.21-1.1-2.5-1.43-3.84-.33-1.29-.54-2.62-.63-3.94-.09-1.29-.09-2.54,0-3.72.09-1.15.32-2.37.66-3.63.36-1.31.89-2.6,1.57-3.81.69-1.23,1.55-2.36,2.55-3.36,1.08-1.09,2.37-1.92,3.82-2.47,1.88-.7,3.66-1.06,5.28-1.06.21,0,.41,0,.61.02,1.84.1,3.52.58,5,1.42,1.45.82,2.69,1.93,3.71,3.3.95,1.28,1.73,2.73,2.32,4.3.44,1.11.79,2.34,1.03,3.6.24,1.24.38,2.49.42,3.72.04,1.23,0,2.45-.13,3.63-.14,1.21-.36,2.34-.67,3.38-.17.65-.4,1.33-.65,1.94-.26.61-.56,1.21-.9,1.8-.86,1.47-1.98,2.68-3.33,3.61-1.3.89-2.75,1.53-4.3,1.89-.96.24-2,.37-3.05.37h-.2ZM41.17,64.86c-.29,0-.79.08-1.59.47-.25.12-.47.3-.66.53-.25.31-.45.66-.61,1.06-.2.51-.36,1.04-.48,1.6-.12.56-.19,1.09-.21,1.59-.05.69-.06,1.33-.04,1.99.02.63.09,1.27.22,1.9.12.61.28,1.19.49,1.72.17.43.38.79.66,1.11.38.44.82.75,1.31.91.29.1.56.14.83.14h0c.18,0,.36-.02.55-.07.51-.11,1.11-.38,1.67-1.56l.06-.12c.2-.37.36-.82.47-1.33.28-1.11.39-2.3.34-3.63-.04-1.33-.26-2.59-.64-3.75-.21-.61-.48-1.17-.8-1.64-.23-.33-.47-.57-.74-.73-.21-.12-.49-.18-.85-.18Z"/>
        <path class="cls-1" d="M41.31,57.31c.16,0,.32,0,.47.01,1.45.08,2.75.45,3.9,1.1,1.15.65,2.13,1.53,2.94,2.62.81,1.09,1.47,2.32,1.98,3.68.4,1.01.71,2.08.92,3.2.21,1.12.34,2.23.38,3.34.04,1.11,0,2.19-.12,3.26s-.31,2.05-.58,2.96c-.16.61-.35,1.17-.56,1.68-.21.51-.47,1.01-.76,1.52-.67,1.15-1.53,2.08-2.58,2.8-1.05.72-2.21,1.23-3.46,1.52-.8.2-1.63.3-2.48.3-.05,0-.11,0-.16,0-.91-.01-1.8-.13-2.68-.36-.88-.23-1.73-.56-2.54-1-.81-.44-1.55-.99-2.22-1.66-.83-.8-1.51-1.73-2.04-2.78-.53-1.05-.95-2.16-1.24-3.32-.29-1.16-.48-2.33-.56-3.5-.08-1.17-.08-2.29,0-3.36.08-.99.27-2.04.58-3.16s.75-2.2,1.34-3.24c.59-1.04,1.3-1.98,2.14-2.82.84-.84,1.82-1.47,2.94-1.9,1.59-.59,3.06-.89,4.39-.89M41.09,80.38c.37,0,.75-.04,1.12-.13,1.47-.32,2.59-1.29,3.36-2.92.32-.59.56-1.25.72-2,.32-1.25.45-2.67.4-4.24-.05-1.57-.31-3.05-.76-4.44-.29-.85-.66-1.61-1.1-2.26-.44-.65-.96-1.15-1.56-1.5-.6-.35-1.3-.52-2.1-.52s-1.69.24-2.68.72c-.59.29-1.09.69-1.5,1.2-.41.51-.75,1.08-1,1.72-.25.64-.45,1.31-.6,2-.15.69-.23,1.36-.26,2-.05.69-.07,1.42-.04,2.18.03.76.11,1.52.26,2.28s.35,1.48.62,2.16.63,1.29,1.08,1.82c.69.8,1.5,1.35,2.42,1.66.54.18,1.08.27,1.62.27M41.31,52.31h0c-1.92,0-3.99.41-6.14,1.21-1.81.69-3.39,1.71-4.73,3.05-1.16,1.15-2.15,2.47-2.96,3.9-.78,1.39-1.39,2.86-1.81,4.37-.39,1.41-.64,2.78-.74,4.08-.1,1.33-.1,2.7,0,4.1.1,1.47.34,2.95.7,4.39.38,1.51.93,2.97,1.63,4.35.78,1.53,1.78,2.91,2.99,4.09,1,.99,2.13,1.83,3.35,2.49,1.16.63,2.4,1.11,3.67,1.44,1.27.33,2.56.5,3.86.52h.24c1.24,0,2.47-.15,3.65-.44,1.84-.44,3.56-1.19,5.1-2.25,1.67-1.14,3.04-2.63,4.08-4.41.4-.69.75-1.39,1.05-2.09.3-.7.56-1.47.77-2.29.34-1.16.58-2.42.73-3.74.15-1.31.2-2.65.15-4-.05-1.35-.21-2.73-.46-4.09-.27-1.41-.66-2.77-1.16-4.06-.67-1.78-1.55-3.42-2.64-4.87-1.22-1.65-2.73-2.98-4.47-3.98-1.82-1.04-3.87-1.63-6.1-1.75-.25-.01-.49-.02-.75-.02h0ZM40.8,67.52s.04-.02.06-.03c.11.22.22.47.32.74.3.92.47,1.94.5,3.02.04,1.09-.05,2.04-.25,2.83l-.02.09-.02.09c-.07.34-.16.54-.22.65l-.07.12-.06.13c-.03.06-.05.1-.07.14-.06-.05-.12-.12-.15-.15-.06-.07-.14-.21-.2-.37-.15-.39-.28-.82-.37-1.28-.1-.5-.16-1.01-.17-1.51-.02-.57-.01-1.11.03-1.62v-.09s.01-.09.01-.09c.01-.36.07-.75.16-1.17.09-.41.21-.81.36-1.19.05-.13.11-.24.17-.33h0Z"/>
      </g>
      <g>
        <path class="cls-2" d="M74.6,88.11c-.32,0-.63-.04-.93-.1-.72-.15-1.36-.42-1.9-.79l-.09-.06-.08-.07c-.18-.16-.35-.3-.51-.44-.09-.08-.18-.16-.27-.23l-.12-.09-.47-.47c-.22-.22-.42-.47-.58-.74l-.05-.05-3.39-4.89-3.37,4.9-.15.14c-.11.18-.24.35-.38.52-.08.09-.15.18-.23.27l-.18.22-.22.18c-.15.12-.31.25-.49.38-.06.05-.12.1-.17.15l-.17.17-.2.14c-.36.24-.75.43-1.15.55-.16.05-.56.18-.56.18l-.12.03c-.31.07-.63.11-.96.11-.46,0-.92-.07-1.39-.21-1.88-.46-2.81-1.58-3.27-2.45-.38-.77-.54-1.55-.48-2.36.04-.61.19-1.23.43-1.84.19-.48.42-.95.68-1.41.23-.39.46-.77.71-1.14l.06-.09.07-.08c.13-.16.25-.31.37-.44.08-.09.15-.18.23-.27.29-.38.6-.8.89-1.23.33-.48.68-.98,1.05-1.52l2.73-3.96-4.5-6.5-.47-.66c-.1-.15-.17-.24-.23-.33-.15-.18-.29-.39-.44-.63-.11-.15-.22-.3-.33-.47-.18-.27-.34-.58-.48-.92-.08-.16-.15-.31-.21-.45-.12-.26-.23-.58-.32-.95-.15-.6-.2-1.18-.14-1.74l.02-.16.04-.16c.18-.78.57-1.48,1.14-2.04.29-.32.62-.58,1-.79.12-.06.51-.29.51-.29l.19-.07c.38-.15.71-.26,1.04-.34.42-.1.85-.16,1.29-.16h.14c.95.06,1.84.38,2.65.97.71.47,1.36,1.05,1.92,1.72l.11.13.09.14c.15.24.31.47.46.68.17.23.35.46.54.7l.34.43.05.2c.57.77,1.11,1.52,1.59,2.24.09.14.18.27.28.41.11-.16.22-.31.32-.46.54-.77,1.11-1.57,1.72-2.4l.11-.21.78-.97c.15-.19.29-.39.43-.61l.09-.14.11-.13c.56-.66,1.2-1.24,1.9-1.7.78-.59,1.7-.93,2.68-.98h.13c.77,0,1.57.18,2.37.53l.13.06.12.07c.47.27.85.56,1.16.88.68.58,1.14,1.32,1.33,2.16l.04.15.02.16c.05.55,0,1.13-.14,1.73-.09.37-.2.69-.33.97-.11.24-.24.46-.4.69-.18.4-.37.76-.58,1.07-.16.27-.32.5-.48.71l-.08.17-.58.83-4.52,6.49,2.74,3.97,2.19,3.09.05.08c.23.38.45.74.68,1.09.27.42.53.86.8,1.33.55,1.01.78,1.97.69,2.88-.05.49-.11.91-.17,1.24l-.02.09-.02.09c-.24.88-.8,1.64-1.62,2.17-.52.34-1.09.6-1.7.77-.54.15-1.04.22-1.5.22Z"/>
        <path class="cls-1" d="M74.44,56.92c.43,0,.88.11,1.36.32.32.19.56.37.72.56.32.24.52.53.6.88.03.27,0,.56-.08.88-.05.21-.11.39-.18.54s-.17.3-.3.46c-.16.4-.33.73-.52,1-.11.19-.21.35-.32.48-.11.13-.2.28-.28.44l-.48.68-5.52,7.92,3.72,5.4,2.16,3.04c.24.4.48.79.72,1.16.24.37.48.77.72,1.2.29.53.42,1,.38,1.4-.04.4-.09.73-.14,1-.08.29-.27.54-.58.74-.31.2-.65.35-1.02.46-.3.08-.57.12-.81.12-.14,0-.27-.01-.39-.04-.4-.08-.73-.21-1-.4-.16-.13-.31-.26-.44-.38-.13-.12-.27-.23-.4-.34-.13-.13-.25-.25-.36-.36-.11-.11-.19-.21-.24-.32-.05-.11-.1-.18-.14-.22-.04-.04-.07-.07-.1-.1l-5.32-7.68-5.28,7.68s-.06.06-.1.1-.1.11-.18.22c-.05.11-.13.21-.22.32-.09.11-.19.23-.3.36-.13.11-.28.22-.44.34s-.31.25-.44.38c-.16.11-.33.19-.5.24-.17.05-.34.11-.5.16-.13.03-.26.04-.4.04-.23,0-.47-.04-.72-.12-.83-.19-1.4-.59-1.72-1.2-.16-.32-.23-.66-.2-1.02.03-.36.11-.73.26-1.1.15-.37.32-.73.52-1.08s.41-.68.62-1c.11-.13.21-.25.3-.36.09-.11.19-.23.3-.36.35-.45.68-.91,1-1.38.32-.47.67-.97,1.04-1.5l3.72-5.4-5.48-7.92-.48-.68c-.11-.16-.21-.31-.32-.44-.11-.13-.21-.29-.32-.48-.11-.13-.21-.28-.32-.44-.11-.16-.2-.35-.28-.56-.08-.16-.15-.31-.22-.46-.07-.15-.13-.33-.18-.54-.08-.32-.11-.61-.08-.88.08-.35.25-.64.52-.88.11-.13.23-.24.38-.32s.29-.16.42-.24c.27-.11.51-.19.72-.24.21-.05.44-.08.68-.08.48.03.93.2,1.36.52.53.35,1.01.77,1.44,1.28.19.29.37.57.56.82.19.25.39.51.6.78l.04.16c.67.88,1.27,1.73,1.82,2.54s1.15,1.67,1.82,2.58c.11.13.2.27.28.4.08.13.17.27.28.4.11-.13.2-.27.28-.4.08-.13.17-.27.28-.4.61-.91,1.21-1.77,1.78-2.58.57-.81,1.18-1.66,1.82-2.54l.08-.16c.21-.27.42-.53.62-.78.2-.25.39-.53.58-.82.43-.51.91-.93,1.44-1.28.4-.32.85-.49,1.36-.52M74.44,51.92h-.27c-1.45.09-2.83.58-4,1.45-.87.59-1.67,1.31-2.36,2.13l-.22.26-.18.28c-.09.15-.19.28-.28.4-.2.25-.4.51-.61.76l-.33.41h0s-.34-.42-.34-.42c-.17-.21-.32-.41-.47-.61-.12-.17-.24-.34-.37-.54l-.18-.29-.22-.26c-.71-.84-1.52-1.57-2.41-2.16-1.17-.84-2.53-1.32-3.93-1.4h-.14s-.14,0-.14,0c-.64,0-1.27.08-1.88.23-.45.11-.9.26-1.38.45l-.37.15-.34.21c-.08.05-.16.1-.25.14-.6.33-1.14.75-1.61,1.26-.88.88-1.49,1.98-1.77,3.2l-.07.32-.03.32c-.08.84-.01,1.71.21,2.58.13.52.29.97.48,1.39.06.14.13.29.21.44.2.47.43.91.7,1.3.1.15.21.31.33.47.18.29.37.56.57.81,0,0,.03.04.06.08l.03.05.03.05.48.68,3.49,5.04-1.76,2.56c-.36.52-.72,1.03-1.05,1.51-.26.38-.53.76-.82,1.13-.03.04-.06.08-.1.11-.17.19-.31.36-.46.56l-.14.17-.12.18c-.27.4-.54.83-.79,1.28-.33.57-.61,1.16-.85,1.76-.32.82-.53,1.69-.59,2.55-.09,1.25.16,2.5.71,3.62l.02.04.02.04c.97,1.85,2.67,3.16,4.82,3.71.68.2,1.37.3,2.05.3.51,0,1.02-.06,1.51-.17l.24-.06.24-.08c.12-.04.24-.08.36-.12.66-.2,1.27-.49,1.83-.87l.41-.27.29-.29c.18-.14.35-.27.51-.39l.45-.36.36-.45c.05-.06.1-.12.14-.17.16-.19.31-.38.45-.57l.12-.12.3-.42,1.17-1.71,1.19,1.72.26.37.02.02c.23.33.49.66.8.95l.34.34.21.21.24.19c.05.04.1.09.16.13.16.15.35.31.56.49l.17.14.18.13c.81.57,1.75.97,2.79,1.19.47.11.96.16,1.47.16.69,0,1.41-.1,2.14-.31h.02s.02-.01.02-.01c.84-.24,1.64-.6,2.35-1.07,1.36-.89,2.28-2.14,2.69-3.62l.05-.17.03-.18c.08-.43.15-.91.21-1.47.14-1.42-.18-2.87-.97-4.31v-.02s-.03-.02-.03-.02c-.28-.5-.57-.99-.86-1.44-.22-.34-.43-.69-.65-1.04l-.1-.16-.11-.16-2.14-3.01-1.73-2.52,3.54-5.08.46-.66.22-.31.06-.13c.16-.22.32-.45.47-.7.24-.36.46-.75.66-1.18.19-.29.35-.58.49-.88.19-.42.35-.87.47-1.38.22-.9.29-1.76.21-2.59l-.03-.32-.07-.31c-.31-1.34-1.02-2.52-2.07-3.44-.45-.44-.98-.84-1.6-1.2l-.24-.14-.26-.11c-1.12-.5-2.26-.75-3.39-.75h0Z"/>
      </g>
      <g>
        <path class="cls-2" d="M115.52,89.51c-.33,0-.66-.03-.98-.08l-.11-.02c-.84-.17-1.58-.53-2.18-1.07-.55-.49-.96-1.1-1.22-1.83-.16-.45-.29-.89-.38-1.32-.1-.49-.15-1.05-.15-1.71v-4.08c-.65.26-1.33.42-2.02.47-.53.04-1.06.08-1.59.11-.79.03-1.37.05-1.78.08-.21.01-.41.03-.59.04l-.02,3.57c0,1.35-.46,2.6-1.32,3.61-.92,1.07-2.15,1.64-3.55,1.64-.12,0-.24,0-.37-.01-.52-.05-.96-.13-1.38-.26-.58-.17-1.11-.45-1.58-.83-.53-.43-.94-.99-1.24-1.66-.28-.64-.41-1.36-.41-2.22l-.07-3.9c-.2,0-3.74-.16-3.74-.16-.63-.04-1.21-.16-1.78-.34-.78-.25-1.49-.71-2.11-1.38-.48-.48-1.14-1.48-1.14-3.1,0-1.15.37-2.2,1.08-3.03.48-.54,1.05-.94,1.71-1.19.41-.16.82-.27,1.22-.35.44-.09.83-.13,1.19-.13h9.91c-.05-.16-.09-.32-.13-.48h-9.36c-.47,0-.87-.05-1.24-.15-.36-.1-.72-.25-1.06-.45-.55-.32-.99-.77-1.31-1.34l-.06-.11c-.34-.67-.51-1.46-.51-2.36,0-.99.23-1.84.67-2.54.32-.5.69-.89,1.12-1.17-.52-.43-.95-1.02-1.24-1.74-.34-.86-.51-1.8-.51-2.78v-.11c.06-1.4.69-2.57,1.76-3.31.64-.44,1.33-.77,2.03-.98.78-.22,1.53-.34,2.26-.36.5-.01,1.04-.03,1.61-.06h.12c.39,0,.84,0,1.35.02.45.01.86.02,1.21.02h3.2c.09,0,.18,0,.27-.01.12-.01.25-.02.37-.02.16,0,.32,0,.48.03h.96c.29,0,.57,0,.86.02.19.01.37.02.54.02h.72c.28,0,.56.01.85.04h.23c.42,0,.84.08,1.23.25.16.06.32.11.46.17l.15.06.14.08c.33.18.65.39.96.62.5.38.91.84,1.21,1.39.17.29.33.61.45.95.05-.27.12-.52.19-.76.21-.7.56-1.3,1.04-1.78.67-.67,1.43-1.08,2.27-1.22.47-.08.95-.11,1.46-.11.94,0,1.81.25,2.59.76.81.52,1.42,1.27,1.77,2.17.34.82.54,1.68.58,2.56l.08,1.82c.05,2.19.07,4.37.04,6.54-.03,2.12-.04,4.13-.04,6.01v10c0,.69-.04,1.41-.11,2.12-.08.79-.26,1.61-.52,2.44l-.05.14c-.33.87-.96,1.58-1.8,2.08-.6.37-1.26.6-1.96.68-.25.03-.49.04-.73.04Z"/>
        <path class="cls-1" d="M115.68,54.64c.45,0,.87.12,1.24.36.37.24.64.57.8,1,.24.56.37,1.14.4,1.74.03.6.05,1.21.08,1.82.05,2.13.07,4.27.04,6.4-.03,2.13-.04,4.15-.04,6.04v10c0,.61-.03,1.23-.1,1.86-.07.63-.21,1.27-.42,1.94-.13.35-.39.63-.76.84-.29.19-.61.3-.96.34-.15.02-.3.03-.44.03-.2,0-.4-.02-.6-.05-.4-.08-.73-.24-1-.48-.24-.21-.42-.49-.54-.82-.12-.33-.21-.66-.28-.98-.07-.32-.1-.72-.1-1.2v-25.36c0-.37.03-.75.08-1.12.05-.37.13-.71.22-1.02.09-.31.23-.55.42-.74.29-.29.6-.47.92-.52.32-.05.67-.08,1.04-.08M95.09,54.88c.37,0,.8,0,1.28.02.48.01.91.02,1.28.02h3.2c.16,0,.32,0,.48-.02.05,0,.11,0,.16,0,.11,0,.21,0,.32.03h1.12c.24,0,.48,0,.72.02s.47.02.68.02h.72c.24,0,.48.01.72.04h.36c.11,0,.21.03.32.08.16.05.31.11.44.16.24.13.47.28.68.44.21.16.39.36.52.6.24.4.39.83.46,1.28.07.45.1.91.1,1.36,0,.61,0,1.3.02,2.06.01.76.03,1.53.04,2.32.01.79.02,1.56.02,2.32s-.01,1.45-.04,2.06c-.03.37-.03.67-.02.88.01.21,0,.41-.02.6s-.07.37-.14.56c-.07.19-.19.44-.38.76-.21.37-.51.68-.88.92-.37.24-.77.39-1.18.44-.11.01-.22.02-.33.02-.29,0-.58-.05-.85-.16-.37-.15-.68-.41-.92-.78-.24-.4-.41-.73-.52-.98s-.18-.49-.22-.72c-.04-.23-.05-.48-.02-.76.03-.28.04-.65.04-1.1h-11.8c-.24,0-.43-.02-.58-.06s-.3-.11-.46-.2c-.16-.09-.29-.23-.4-.42-.16-.32-.24-.73-.24-1.24s.09-.91.28-1.2c.19-.29.38-.47.58-.52.2-.05.41-.11.62-.16.11,0,.19-.01.24-.04.21-.05.43-.09.66-.1.23-.01.46-.03.7-.06.37-.03.85-.05,1.44-.06.59-.01,1.2-.03,1.84-.04.64-.01,1.27-.02,1.88-.02h3.34c.68,0,1.31.01,1.9.04v-1.54c0-.49-.03-1.01-.08-1.54-.83-.03-1.78-.06-2.86-.1-1.08-.04-2.05-.07-2.9-.1h-.04c-.99,0-2.02.03-3.1.1-.36.02-.71.03-1.06.03-.7,0-1.38-.04-2.04-.13-.45-.05-.79-.37-1.02-.94s-.34-1.19-.34-1.86c.03-.61.25-1.07.68-1.36.43-.29.87-.51,1.32-.64.56-.16,1.1-.25,1.62-.26.52-.01,1.07-.03,1.66-.06M107.09,72.84c.53,0,1.09.03,1.68.08.59.05,1.08.27,1.48.64.24.24.41.49.5.76.09.27.14.56.14.88,0,.4-.09.77-.28,1.1-.19.33-.47.57-.84.7-.48.21-.97.34-1.48.38-.51.04-1.01.07-1.52.1-.77.03-1.37.05-1.8.08-.43.03-.78.05-1.06.06-.28.01-.55.02-.8.02h-1.06l-.04,6c0,.77-.24,1.44-.72,2-.44.51-.99.77-1.65.77-.06,0-.13,0-.19,0-.29-.03-.57-.08-.84-.16s-.51-.21-.72-.38c-.21-.17-.39-.41-.52-.72-.13-.31-.2-.71-.2-1.22l-.12-6.32c-1.04-.03-2.01-.06-2.92-.1-.91-.04-1.96-.09-3.16-.14-.37-.03-.75-.1-1.12-.22-.37-.12-.72-.35-1.04-.7-.32-.32-.48-.79-.48-1.4,0-.56.16-1.03.48-1.4.19-.21.42-.37.7-.48s.55-.19.82-.24c.27-.05.5-.08.7-.08h16.06M115.68,49.64c-.64,0-1.26.05-1.85.15-1.29.22-2.47.82-3.47,1.75-.34-.24-.69-.46-1.05-.66l-.28-.15-.29-.12c-.16-.06-.32-.13-.5-.19-.68-.27-1.39-.41-2.12-.41h-.12c-.32-.03-.64-.04-.96-.04h-.72c-.12,0-.26,0-.4-.01-.34-.02-.67-.03-1-.03h-.84c-.2-.02-.4-.03-.6-.03s-.39,0-.59.03h-.05s-3.2,0-3.2,0c-.33,0-.71,0-1.14-.02-.53-.02-1.01-.02-1.42-.02h-.23c-.55.03-1.07.05-1.56.06-.94.02-1.91.18-2.86.45-.99.29-1.92.73-2.77,1.32-1.72,1.18-2.75,3.1-2.85,5.27v.11s0,.11,0,.11c0,1.3.23,2.54.69,3.7.09.24.2.47.31.69-.69,1.1-1.04,2.4-1.04,3.86,0,1.29.26,2.46.77,3.48l.06.12.06.11c.07.13.15.26.24.38-.3.24-.59.52-.85.81l-.02.02-.02.02c-1.1,1.28-1.68,2.89-1.68,4.65,0,2.4.99,3.95,1.86,4.85.9.96,1.96,1.63,3.14,2.01.74.24,1.52.39,2.29.44h.06s.06,0,.06,0l1.39.06.03,1.56c0,1.19.21,2.22.61,3.15.46,1.06,1.12,1.93,1.96,2.61.72.59,1.54,1.02,2.44,1.29.58.17,1.19.29,1.81.35h.06s.06,0,.06,0c.18.01.36.02.54.02,2.12,0,4.06-.89,5.45-2.51,1.26-1.47,1.92-3.29,1.92-5.25v-1.17s.02,0,.02,0c.33-.02.65-.04.98-.06v1.07c0,.83.07,1.56.2,2.22.11.54.27,1.1.47,1.65.41,1.13,1.05,2.09,1.92,2.86.91.82,2.07,1.39,3.34,1.65l.11.02.11.02c.45.07.91.11,1.36.11.34,0,.68-.02,1.02-.06,1.06-.12,2.06-.47,2.97-1.02,1.33-.78,2.31-1.93,2.84-3.32l.05-.14.05-.14c.32-.99.53-1.98.63-2.93.09-.81.13-1.61.13-2.39v-10c0-1.91.01-3.92.04-5.98.03-2.21.01-4.42-.04-6.59v-.05s0-.05,0-.05l-.05-1.24-.03-.58c-.05-1.18-.31-2.32-.76-3.4-.55-1.38-1.49-2.53-2.73-3.33-1.18-.76-2.54-1.16-3.95-1.16h0Z"/>
      </g>
      <g>
        <path class="cls-2" d="M128.4,86.8c-1.13,0-2.11-.02-2.94-.05-.61-.04-1.16-.12-1.7-.24-.64-.14-1.22-.36-1.74-.64-.71-.38-1.28-.93-1.71-1.62-.45-.72-.68-1.6-.68-2.61,0-1.14.39-2.19,1.13-3.04l.06-.07.06-.06c.49-.49,1.08-.85,1.77-1.08.45-.15.86-.25,1.27-.33.02,0,.04,0,.06-.01-.17-.18-.34-.39-.51-.62l-.08-.11c-.67-1.03-.95-2.09-.83-3.14.1-.87.42-1.68.93-2.4.4-.57.92-1.09,1.52-1.56.46-.36.92-.69,1.37-.99.93-.62,1.87-1.36,2.8-2.21.91-.83,1.79-1.66,2.6-2.46v-.06h-3.77c-.15,0-.3,0-.45,0-.67,0-1.31-.06-1.9-.18-.86-.2-1.6-.54-2.27-1.04-.69-.51-1.54-1.46-1.69-3.16-.2-2.17.69-3.39,1.46-4.03.84-.69,1.85-1.09,3-1.2.3-.04.68-.05,1.21-.05h1.02l18.03-.08c.59,0,1.16.03,1.68.1.71.09,1.35.28,1.92.56.71.36,1.29.86,1.72,1.5.47.71.7,1.54.7,2.49.04,1.05-.14,1.98-.57,2.75-.47.84-1.16,1.48-2.02,1.85-.65.29-1.38.45-2.15.47-.18,0-.35,0-.53,0-.32,0-.64,0-.96-.03l-3.25.04c.09.1.18.19.26.29.65.76,1.4,1.44,2.25,2.04,1.09.76,2.18,1.62,3.26,2.56l.12.1.1.11c.22.25.47.52.75.8.42.44.79.93,1.1,1.45.37.62.61,1.27.73,1.93.16.89.03,1.79-.37,2.66-.31.62-.71,1.13-1.18,1.52,1.04.08,2,.47,2.82,1.14l.09.08c1.38,1.24,1.66,2.63,1.66,3.57s-.29,1.8-.83,2.56c-.53.74-1.26,1.29-2.12,1.59-.7.27-1.43.47-2.18.57-.64.09-1.29.15-1.92.18-1.5.06-3.04.09-4.57.09-.51,0-1.03,0-1.54,0-2.02-.03-3.91-.04-5.69-.04-1.91,0-3.77.01-5.58.04-.62,0-1.2.01-1.75.01ZM143.25,76.98c-.09-.06-.19-.11-.28-.17-1.33-.86-2.62-1.82-3.79-2.82-.6-.51-1.2-1.04-1.81-1.58,0,0-1.36,1.09-1.93,1.56-.59.48-1.07.87-1.45,1.17-.44.33-.91.71-1.46,1.17-.28.23-.56.45-.85.66l11.57.02Z"/>
        <path class="cls-1" d="M146.44,56.28c.48,0,.93.03,1.36.08.43.05.8.16,1.12.32.32.16.57.38.76.66.19.28.28.65.28,1.1.03.67-.06,1.18-.26,1.54-.2.36-.48.62-.84.78-.36.16-.77.25-1.22.26-.15,0-.3,0-.45,0-.3,0-.6,0-.91-.03l-6,.08.04,1.52c0,.21-.01.47-.04.76-.03.29-.01.55.04.76.08.29.23.54.44.74.21.2.41.41.6.62.77.91,1.67,1.72,2.7,2.44,1.03.72,2.05,1.52,3.06,2.4.24.27.51.55.8.86.29.31.55.64.76,1,.21.36.35.73.42,1.1.07.37,0,.76-.18,1.16-.21.43-.51.72-.9.88-.33.14-.68.21-1.04.21-.06,0-.12,0-.18,0-.43-.03-.86-.11-1.3-.26-.44-.15-.82-.33-1.14-.54-1.28-.83-2.47-1.71-3.56-2.64-1.09-.93-2.19-1.91-3.28-2.92,0,0,0,0,0,0-.05,0-.26.14-.61.42-.39.31-.85.67-1.38,1.1-.53.43-1.09.87-1.66,1.34-.57.47-1.05.85-1.42,1.14-.43.32-.93.73-1.52,1.22-.59.49-1.2.9-1.84,1.22-.59.29-1.17.44-1.75.44-.05,0-.1,0-.15,0-.63-.03-1.19-.39-1.7-1.08-.35-.53-.49-1.03-.44-1.48s.21-.87.48-1.24c.27-.37.61-.72,1.02-1.04s.82-.61,1.22-.88c1.04-.69,2.07-1.51,3.1-2.44,1.03-.93,1.99-1.85,2.9-2.76.35-.35.52-.69.52-1.04v-3.08h-6.32c-.14,0-.27,0-.4,0-.51,0-.98-.04-1.4-.13-.45-.11-.88-.31-1.28-.6-.4-.29-.63-.75-.68-1.36-.08-.88.11-1.51.56-1.88.45-.37,1.01-.59,1.68-.64.19-.03.5-.04.94-.04h1.02l18.04-.08M125.52,79.44l22.28.04c.69,0,1.33,0,1.9.02.57.01,1.09.21,1.54.58.56.51.84,1.08.84,1.72,0,.4-.12.77-.36,1.1-.24.33-.56.57-.96.7-.53.21-1.09.36-1.66.44-.57.08-1.14.13-1.7.16-1.46.06-2.95.09-4.45.09-.5,0-1,0-1.51,0-2.03-.03-3.93-.04-5.72-.04-1.92,0-3.79.01-5.62.04-.6,0-1.17.01-1.71.01-1.08,0-2.03-.02-2.83-.05-.43-.03-.85-.09-1.26-.18-.41-.09-.78-.23-1.1-.4-.32-.17-.58-.42-.78-.74-.2-.32-.3-.75-.3-1.28s.17-1,.52-1.4c.21-.21.48-.37.8-.48.32-.11.63-.19.92-.24.29-.05.55-.08.78-.08h.38M146.44,51.28h-.02s-18.04.08-18.04.08h-1c-.61,0-1.07.02-1.47.07-1.63.16-3.12.76-4.32,1.75-1.02.84-2.67,2.76-2.36,6.19.18,2.03,1.14,3.79,2.7,4.94.94.69,1.98,1.17,3.09,1.44l.08.02.08.02c.09.02.19.04.29.05-.16.11-.31.22-.47.33-.5.33-1.01.7-1.51,1.09-.8.62-1.48,1.32-2.03,2.09-.76,1.06-1.22,2.26-1.37,3.55-.09.73-.07,1.71.28,2.83-.45.28-.87.61-1.25.99l-.12.12-.11.13c-1.14,1.31-1.75,2.93-1.75,4.68,0,1.48.36,2.8,1.06,3.93.66,1.06,1.55,1.9,2.64,2.49.73.39,1.53.69,2.38.88.67.15,1.36.25,2.04.29h.05s.05,0,.05,0c.87.04,1.9.06,3.05.06.56,0,1.15,0,1.78-.01,1.75-.03,3.62-.04,5.55-.04,1.8,0,3.71.01,5.65.04.53,0,1.05.01,1.58.01,1.57,0,3.14-.03,4.66-.09.75-.04,1.47-.1,2.19-.2.93-.13,1.84-.37,2.71-.7,1.32-.48,2.45-1.33,3.27-2.46.86-1.2,1.3-2.58,1.3-4.03,0-2.05-.88-3.98-2.49-5.43l-.09-.08-.09-.08c-.21-.17-.42-.33-.64-.47.36-1.09.45-2.23.25-3.34-.18-.97-.52-1.9-1.04-2.77-.41-.7-.9-1.33-1.45-1.91-.26-.27-.49-.52-.7-.75l-.21-.23-.23-.2c-.29-.26-.59-.51-.89-.75.48-.11.94-.27,1.38-.47,1.34-.59,2.45-1.6,3.18-2.92.64-1.15.94-2.52.89-4.08-.02-1.41-.39-2.67-1.11-3.75-.68-1.02-1.61-1.83-2.69-2.37-.83-.41-1.74-.68-2.73-.81-.63-.08-1.3-.12-1.99-.12h0Z"/>
      </g>
    </g>
  </g>
</svg>