<?xml version="1.0" encoding="UTF-8"?>
<svg id="_레이어_2" data-name="레이어 2" xmlns="http://www.w3.org/2000/svg" viewBox="0 0 184.26 91.27">
  <defs>
    <style>
      .cls-1 {
        fill: #fff;
      }

      .cls-1, .cls-2 {
        stroke-width: 0px;
      }

      .cls-2 {
        fill: #e3dd3f;
      }
    </style>
  </defs>
  <g id="BACKGROUND_2" data-name="BACKGROUND 2">
    <g>
      <g>
        <path class="cls-2" d="M48.67,39.82l-.2-.1c-.96-.14-1.82-.53-2.5-1.14-.68-.61-1.19-1.35-1.54-2.22-.29-.72-.47-1.48-.54-2.26-.06-.62-.09-1.19-.09-1.7V8.26c0-.38.04-.78.12-1.23.08-.44.2-.91.37-1.38.24-.68.61-1.27,1.08-1.74.5-.5,1.16-.86,1.96-1.07.56-.15,1.11-.22,1.61-.22,1.25,0,2.38.46,3.25,1.33.75.75,1.21,1.61,1.36,2.55.07.42.13.85.18,1.3.04.22.06.45.07.72.05.48.09.98.1,1.48.01.46.03.92.06,1.37v.66c0,.11,0,.27.02.5.01.31.02.77.02,1.38v.98c.21,0,.44.03.67.07l.56.1c1.02.2,1.89.65,2.58,1.34.57.57,1.23,1.56,1.23,3.11,0,.49-.04,1.02-.12,1.62-.16,1.14-.7,2.09-1.57,2.76-.23.2-.56.41-.89.58-.32.16-.69.29-1.08.39l-.14.04-.15.02c-.34.04-.69.07-1.09.07v2.73c.05,1.35.05,2.79,0,4.18v.46c0,.37,0,.78-.02,1.22-.02.5-.06.99-.12,1.47-.08.58-.22,1.14-.41,1.67-.25.67-.61,1.25-1.07,1.74-.79.88-1.89,1.36-3.11,1.36h-.59ZM36.99,38.22c-.68,0-1.36-.14-2.01-.42-.93-.39-1.63-1.06-2.02-1.93-.56-1.12-.86-2.45-.86-3.88v-1.66c-.03-.35-.04-.71-.04-1.06v-14.89s-.08,0-.12,0h-1.67c-.25.01-.5.02-.75.02-.27,0-.55,0-.82-.02-.18-.01-.36-.02-.54-.02-.16,0-.31,0-.47.01-.22.02-.42.03-.61.03-.13,0-.26,0-.38-.01-.1,0-.24-.01-.38-.01-.36,0-.73-.02-1.13-.05-.77-.06-1.48-.32-2.11-.76-.82-.58-1.4-1.36-1.7-2.26-.21-.63-.32-1.29-.33-1.97-.04-.88.14-1.76.54-2.6.29-.68.71-1.23,1.25-1.63.35-.3.78-.54,1.27-.72.32-.12.6-.21.84-.28l.11-.03c.73-.17,1.5-.27,2.28-.29.63-.01,1.25-.02,1.86-.02h7.15l.19.03c.31.05.63.09.97.12.62.06,1.22.21,1.77.44.3.11.68.31,1.04.54.46.3.84.67,1.15,1.11l.07.11c.45.7.72,1.44.8,2.2.04.37.15,1.33.15,1.33.06.8.09,1.61.09,2.4v15.34l.02.53c.01.41.02.9.02,1.45v1.64c0,.63-.02,1.18-.04,1.65-.04.42-.09.77-.16,1.13-.09.5-.24.97-.44,1.42-.24.54-.58,1.03-1.01,1.46-.47.47-1.04.83-1.71,1.09-.71.29-1.48.45-2.26.45Z"/>
        <path class="cls-1" d="M48.95,5.12c.59,0,1.08.2,1.48.6.37.37.59.77.66,1.18.07.41.13.85.18,1.3.03.11.04.27.04.48.05.45.09.92.1,1.4.01.48.03.96.06,1.44v.52c0,.13,0,.34.02.62.01.28.02.7.02,1.26v3.36c.37.03.76.05,1.16.06.4.01.79.03,1.16.06.13,0,.28.01.44.04.16.03.32.05.48.08.53.11.97.33,1.3.66.33.33.5.78.5,1.34,0,.37-.03.8-.1,1.28-.07.48-.27.85-.62,1.12-.16.13-.32.24-.48.32-.16.08-.35.15-.56.2-.28.04-.61.05-.98.05-.18,0-.38,0-.58-.01-.31-.01-.59-.02-.85-.02s-.5,0-.71.02c-.11,0-.16.07-.16.2v5.04c.05,1.39.05,2.75,0,4.08v.56c0,.35,0,.73-.02,1.14-.01.41-.05.82-.1,1.22-.05.4-.15.78-.28,1.14-.13.36-.32.66-.56.9-.32.37-.75.56-1.28.56l-.08-.04c-.64-.03-1.15-.21-1.54-.56-.39-.35-.68-.77-.88-1.28-.2-.51-.33-1.03-.38-1.58-.05-.55-.08-1.03-.08-1.46V8.26c0-.23.03-.49.08-.8.05-.31.14-.63.26-.96.12-.33.29-.61.5-.82.19-.19.46-.33.82-.42s.69-.14.98-.14M36.15,6.28c.35.05.71.1,1.1.14.39.04.74.13,1.06.26.21.08.42.19.62.32.2.13.37.29.5.48.24.37.38.75.42,1.12.04.37.09.79.14,1.24.05.75.08,1.49.08,2.22v15.34s0,.23.02.62c.01.39.02.84.02,1.36v1.64c0,.57-.01,1.07-.04,1.5-.03.27-.07.55-.12.84-.05.29-.14.57-.26.84-.12.27-.29.51-.5.72-.21.21-.49.39-.84.52-.45.19-.91.28-1.36.28-.35,0-.69-.07-1.04-.22-.35-.15-.59-.37-.72-.66-.43-.85-.64-1.8-.64-2.84v-1.76c-.03-.32-.04-.64-.04-.96v-14.96c0-.43-.03-.87-.08-1.32-.03-.13-.06-.32-.1-.56s-.13-.39-.26-.44c-.12-.07-.25-.1-.39-.1-.02,0-.05,0-.07,0-.06,0-.12,0-.17,0-.11,0-.22,0-.33-.03-.09-.01-.19-.02-.28-.02s-.18,0-.26.02c-.09.01-.18.02-.27.02s-.18,0-.27-.02h-1.88c-.23.01-.45.02-.68.02s-.45,0-.68-.02c-.23-.01-.45-.02-.68-.02s-.45,0-.68.02c-.14.02-.27.03-.4.03-.06,0-.12,0-.18,0-.17-.01-.37-.02-.58-.02-.29,0-.6-.01-.92-.04s-.61-.13-.88-.32c-.37-.27-.63-.6-.76-1-.13-.4-.2-.81-.2-1.24-.03-.51.08-1.01.32-1.52.13-.32.31-.55.52-.68.13-.13.33-.25.58-.34.25-.09.47-.17.66-.22.56-.13,1.15-.21,1.76-.22.61-.01,1.21-.02,1.8-.02h6.96M48.95.12c-.72,0-1.47.1-2.24.3-1.23.32-2.28.9-3.1,1.73-.4.4-.76.86-1.05,1.36-.26-.24-.55-.46-.85-.67-.5-.33-1.02-.6-1.55-.81-.75-.3-1.56-.5-2.4-.59-.29-.03-.57-.07-.84-.11l-.38-.06h-7.35c-.62,0-1.26,0-1.91.02-.96.02-1.9.14-2.8.35l-.11.03-.11.03c-.31.09-.63.2-1,.33-.75.28-1.41.65-1.98,1.12-.84.65-1.51,1.52-1.97,2.56-.55,1.19-.8,2.43-.75,3.69.01.92.17,1.83.46,2.7.47,1.4,1.37,2.61,2.6,3.49,1.02.72,2.17,1.13,3.37,1.23.46.04.91.06,1.33.06.08,0,.15,0,.22,0,.16.01.35.02.55.02.26,0,.53-.01.8-.04.09,0,.19,0,.28,0,.13,0,.26,0,.39.01.32.02.65.03.97.03.01,0,.03,0,.04,0v12.38c0,.38.01.77.04,1.15v1.57c0,1.79.38,3.48,1.14,5.02.66,1.38,1.82,2.47,3.28,3.09.96.41,1.97.61,2.99.61,1.09,0,2.17-.21,3.21-.64.97-.38,1.81-.92,2.5-1.61.43.74.97,1.4,1.61,1.97.94.84,2.09,1.41,3.37,1.67l.4.2h1.19c1.93,0,3.68-.76,4.95-2.16.69-.72,1.22-1.59,1.58-2.56.26-.71.45-1.45.55-2.21.08-.57.12-1.14.14-1.72.02-.48.02-.91.02-1.3v-.46c.05-1.39.05-2.83,0-4.27v-.48c.38-.12.74-.27,1.08-.44.47-.24.94-.54,1.37-.89,1.33-1.06,2.2-2.59,2.44-4.33.1-.72.15-1.37.15-1.97,0-1.87-.7-3.6-1.96-4.87-.86-.85-1.91-1.48-3.09-1.84,0-.14,0-.27-.01-.39,0-.18-.01-.3-.01-.39v-.8c-.03-.43-.05-.87-.06-1.3-.02-.54-.05-1.07-.1-1.59-.01-.33-.04-.63-.09-.93-.06-.46-.12-.89-.19-1.31-.24-1.46-.95-2.82-2.06-3.93-1.33-1.33-3.11-2.07-5.02-2.07h0Z"/>
      </g>
      <g>
        <path class="cls-2" d="M62.13,37.32c-.41,0-.83-.01-1.27-.04-1.17-.07-2.21-.47-3.07-1.19l-.09-.08c-1.37-1.24-1.66-2.63-1.66-3.57,0-.83.23-1.66.68-2.47.52-.92,1.28-1.6,2.21-1.97.65-.26,1.32-.42,2-.47-.23-.21-.45-.45-.65-.72-.65-.88-1.03-1.92-1.12-3.09-.02-.2-.05-.66-.07-1.29l-.04-1.69c-.01-.61-.02-1.17-.02-1.7v-1.95c-.03-.44-.02-.91.04-1.39.09-.84.42-1.61.97-2.29.29-.39.66-.72,1.08-1-.49-.33-.98-.81-1.39-1.53-.66-1.17-.85-2.47-.55-3.77l.03-.11c.32-1.15,1.1-2.09,2.21-2.65.67-.34,1.23-.54,1.75-.65.39-.09.77-.14,1.15-.14h2.06c.44,0,.99,0,1.63.02.61.01,1.25.02,1.93.02s1.36,0,2.05-.02c.72-.01,1.39-.02,1.99-.02h8.08c.5,0,1,.01,1.51.04.66.04,1.3.16,1.92.35,1.42.41,2.46,1.44,2.89,2.89.26.86.38,1.71.38,2.54v5.28c0,.29-.02.66-.08,1.13-.05.42-.12.86-.22,1.32-.11.53-.28,1.05-.5,1.54-.28.63-.65,1.15-1.12,1.53.61.36,1.41,1.08,1.81,2.41l.03.1c.25,1.02.21,2.02-.13,2.97-.27.75-.71,1.38-1.31,1.86.43.07.83.17,1.22.29.71.22,1.39.61,2.02,1.15l.07.06.07.07c.85.85,1.29,1.94,1.29,3.17,0,.52-.08,1.06-.23,1.61-.19.69-.49,1.27-.89,1.73l-.06.07-.07.07c-.49.49-1.09.86-1.78,1.08-.46.15-.92.26-1.37.32-.41.06-.78.08-1.12.08h-22.78s-.1,0-.15,0c-.2.02-.4.03-.59.03-.24.01-.49.02-.75.02Z"/>
        <path class="cls-1" d="M82.06,6.08c.45,0,.91.01,1.36.04.45.03.89.11,1.32.24.64.19,1.05.59,1.24,1.22.19.63.28,1.23.28,1.82v5.28c0,.21-.02.49-.06.84s-.1.71-.18,1.08c-.08.37-.19.73-.34,1.06-.15.33-.33.57-.54.7-.37.21-.73.34-1.08.38-.21.02-.41.04-.61.04-.13,0-.26,0-.39-.02h-15.8v3.2h16.54c.23,0,.45.01.66.04.4.03.77.14,1.1.34.33.2.57.53.7.98.13.53.11,1.04-.06,1.52-.17.48-.5.83-.98,1.04-.32.13-.65.22-.98.26-.33.04-.65.06-.94.06h-6.88l.04,3.76c.64,0,1.23,0,1.78-.02.55-.01,1.09-.02,1.64-.02s1.09,0,1.64.02c.55.01,1.13.02,1.74.02.19.01.38.02.57.02.28,0,.56-.01.83-.04.19-.02.39-.03.58-.03.25,0,.5.02.74.05.05.02.11.03.16.03.03,0,.05,0,.08,0,.08-.01.16-.02.24-.02.45.05.87.14,1.26.26.39.12.77.34,1.14.66.37.37.56.84.56,1.4,0,.29-.05.61-.14.94-.09.33-.22.59-.38.78-.21.21-.48.37-.8.48-.32.11-.63.18-.92.22-.29.04-.55.06-.78.06h-22.78c-.13,0-.27,0-.4.02-.13.01-.27.02-.4.02-.22.01-.45.02-.69.02-.36,0-.73-.01-1.11-.04-.64-.04-1.19-.25-1.64-.62-.56-.51-.84-1.08-.84-1.72,0-.4.12-.81.36-1.24.24-.43.56-.72.96-.88.53-.21,1.09-.32,1.66-.32s1.15-.01,1.74-.04h.2c1.28-.03,2.57-.04,3.88-.04s2.63.01,3.96.04l-.04-3.76h-5.82c-.57,0-1.15-.01-1.74-.04-.56-.05-1.03-.33-1.4-.84-.37-.51-.59-1.11-.64-1.8-.03-.24-.05-.63-.06-1.16-.01-.53-.03-1.09-.04-1.68-.01-.59-.02-1.13-.02-1.64v-2.04c-.03-.32-.02-.66.02-1.02s.18-.69.42-.98c.35-.45.83-.74,1.46-.86.63-.12,1.23-.18,1.82-.18.13,0,.35.01.66.04.15.01.29.02.41.02s.23,0,.33-.02h14.2v-3.36h-14.6c-.13,0-.28,0-.44.02-.16.01-.31.02-.44.02-.16,0-.33,0-.5.02-.17.01-.34.02-.5.02-.56,0-1.01-.05-1.36-.16-.45-.11-.83-.41-1.12-.92-.35-.61-.44-1.27-.28-1.96.13-.48.44-.84.92-1.08s.87-.39,1.16-.44c.21-.05.42-.08.62-.08h2.06c.43,0,.95,0,1.58.02.63.01,1.29.02,1.98.02s1.39,0,2.1-.02,1.35-.02,1.94-.02h8.08M82.06,1.08h-8.08c-.62,0-1.3,0-2.04.02-.67.01-1.34.02-2,.02s-1.28,0-1.87-.02c-.67-.01-1.23-.02-1.69-.02h-2.06c-.55,0-1.12.06-1.68.19-.73.15-1.48.42-2.34.86-1.75.87-2.99,2.37-3.5,4.21l-.03.11-.02.11c-.44,1.92-.17,3.84.8,5.55.05.09.11.18.16.27-.61.92-1,1.96-1.12,3.06-.07.59-.08,1.18-.05,1.74v1.87c0,.54,0,1.13.02,1.76.01.59.03,1.15.04,1.69.02.65.04,1.12.08,1.5.06.74.21,1.45.44,2.12-1.07.62-1.95,1.52-2.58,2.64-.67,1.18-1,2.43-1,3.69,0,2.05.88,3.98,2.49,5.43l.09.08.09.07c1.26,1.04,2.82,1.64,4.51,1.75.49.03.97.05,1.43.05.28,0,.55,0,.82-.02.24,0,.47-.02.71-.04h22.74c.45,0,.93-.03,1.46-.11.6-.08,1.21-.23,1.82-.43,1.06-.35,1.99-.92,2.76-1.69l.14-.14.13-.15c.63-.74,1.1-1.64,1.39-2.68.22-.78.33-1.55.33-2.3,0-1.88-.72-3.63-2.02-4.93l-.14-.14-.15-.13c-.36-.31-.73-.58-1.12-.82.42-1.34.46-2.76.12-4.16l-.03-.1-.03-.1c-.21-.72-.52-1.38-.92-1.96.04-.09.08-.18.12-.27.28-.65.5-1.33.65-2.03.11-.52.2-1.04.26-1.55.06-.54.09-1,.09-1.41v-5.28c0-1.06-.16-2.16-.49-3.24-.67-2.25-2.34-3.91-4.59-4.58-.8-.24-1.63-.39-2.47-.45-.57-.03-1.12-.05-1.66-.05h0Z"/>
      </g>
      <g>
        <path class="cls-2" d="M127.54,39.14c-.38,0-.76-.05-1.14-.14-.88-.19-1.64-.61-2.22-1.22-.05-.05-.1-.1-.14-.16-.14.15-.28.29-.44.42-.78.65-1.78.98-2.96.98-.29,0-.61-.03-1.01-.09-.63-.09-1.18-.3-1.64-.63-.49-.32-.9-.75-1.21-1.28-.66.38-1.32.51-1.78.55h-.1s-.1,0-.1,0c-1.14,0-2.14-.42-2.93-1.21-.38-.38-.78-.83-1.2-1.34-.41-.47-.86-1.08-1.28-1.75-.3-.49-.57-.9-.8-1.23-.04.04-.07.09-.1.12l-.6.83c-.21.3-.44.59-.66.88-.11.19-.24.37-.39.53-.39.48-.8.94-1.22,1.38-.63.67-1.37,1.19-2.21,1.54-.53.25-1.12.37-1.73.37-.82,0-1.58-.25-2.19-.72-.26-.2-.53-.44-.82-.73l-.1-.11c-.83-.94-1.27-2.09-1.27-3.34v-.14c.05-.8.24-1.57.58-2.28.23-.49.47-.95.71-1.38l.17-.29.11-.11c.06-.09.14-.22.24-.38.24-.38.53-.85.86-1.41.34-.58.7-1.2,1.08-1.86.4-.7.78-1.35,1.15-1.97.36-.59.67-1.11.93-1.56.25-.42.44-.72.61-.95.05-.1.09-.2.12-.28.03-.07.04-.15.05-.24.05-.41.07-.72.07-1.03v-9.18c0-.28.01-.58.04-.89,0-.4.05-.8.12-1.2.06-.33.12-.63.18-.9l.03-.12.04-.12c.09-.28.21-.56.36-.85l.31-.62.06-.1c.39-.62.94-1.11,1.6-1.42.31-.15.64-.26.99-.35l.29-.09c.37-.09.71-.14,1.03-.14h.13l.21.02c.35.04.73.13,1.14.29.55.21,1.04.52,1.45.93.33.33.6.74.81,1.22.1.22.19.46.28.71.15.36.28.81.37,1.29.09.44.15.9.18,1.37.11,1.12.18,2.46.21,3.91,0,.53.02,1.04.02,1.53.43-.17.91-.28,1.43-.31.18-.01.35-.02.51-.02v-5.82c0-.55.06-1.09.18-1.62l.04-.19.43-1.09.11-.18c.58-.95,1.45-1.66,2.5-2.04.34-.13.69-.21,1.06-.25.23-.02.44-.03.65-.03,1.29,0,2.43.46,3.3,1.31.03-.04.18-.18.18-.18.6-.55,1.25-.91,1.92-1.08.47-.12.98-.17,1.56-.17,1.05,0,2.01.34,2.75.99.6.52,1.06,1.18,1.36,1.98.34.82.54,1.67.58,2.54l.08,1.92v.2c.05,1.99.07,3.98.04,5.88-.03,1.86-.04,3.72-.04,5.61v10c0,.74-.02,1.47-.06,2.16-.06.96-.29,1.87-.7,2.72-.34.73-.88,1.36-1.59,1.86-.84.55-1.69.8-2.6.8ZM115.77,24.45v-.46s-.21,0-.23,0c.07.15.22.47.23.47Z"/>
        <path class="cls-1" d="M127.71,5c.45,0,.83.13,1.12.38.29.25.52.59.68,1.02.24.56.37,1.13.4,1.72.03.59.05,1.19.08,1.8v.2c.05,2.03.07,3.97.04,5.84-.03,1.87-.04,3.75-.04,5.64v10c0,.69-.02,1.36-.06,2-.04.64-.19,1.24-.46,1.8-.16.35-.41.64-.76.88-.37.24-.76.36-1.17.36-.19,0-.39-.03-.59-.08-.4-.08-.72-.25-.96-.5-.24-.25-.42-.54-.54-.86-.12-.32-.19-.67-.22-1.04-.03-.37-.04-.73-.04-1.08V8.5c0-.39.03-.76.08-1.12.05-.36.13-.7.22-1.02.09-.32.23-.57.42-.76.29-.27.57-.43.84-.5.27-.07.59-.1.96-.1M120.75,5.12c.88,0,1.55.4,2,1.2.11.16.18.39.22.68.04.29.07.59.1.9.03.31.04.57.04.8v23.3c0,.67-.02,1.2-.06,1.6-.04.4-.17.91-.38,1.52-.13.4-.36.73-.68,1-.32.27-.77.4-1.36.4-.16,0-.37-.02-.64-.06-.27-.04-.47-.11-.6-.22-.27-.16-.47-.42-.62-.78-.15-.36-.26-.74-.34-1.14-.08-.4-.13-.79-.14-1.16-.01-.37-.02-.67-.02-.88v-10.68l-2.6-.12c-.24,0-.49-.03-.74-.1-.25-.07-.49-.18-.72-.34-.23-.16-.42-.37-.58-.64-.16-.27-.25-.6-.28-1-.05-.48-.02-.99.1-1.54.12-.55.49-.97,1.1-1.26.24-.13.54-.21.9-.24.18-.01.35-.02.5-.02s.3,0,.44.02h1.88v-8.34c0-.36.04-.71.12-1.06.05-.13.1-.25.14-.36.04-.11.09-.23.14-.36.29-.48.71-.81,1.24-1,.13-.05.27-.09.42-.1.15-.01.29-.02.42-.02M109.02,5.42s.06,0,.09,0c.13.01.31.06.52.14.21.08.4.2.56.36.11.11.2.25.28.44.08.19.16.39.24.6.11.27.19.57.26.9.07.33.11.69.14,1.06.11,1.12.17,2.38.2,3.78.03,1.4.04,2.66.04,3.78.03.69.04,1.38.04,2.06s.03,1.35.08,2.02c.03.59.17,1.13.42,1.64.25.51.51,1.01.78,1.52.27.59.55,1.19.84,1.8s.59,1.2.88,1.76c.03.08.12.27.28.56.16.29.33.61.5.94.17.33.33.64.48.92.15.28.23.46.26.54l.08.32.12.24c.16.29.28.6.36.92.08.29.13.61.16.96.03.35-.05.71-.24,1.08-.37.83-.91,1.27-1.6,1.32h-.04c-.43,0-.8-.16-1.12-.48-.32-.32-.67-.71-1.04-1.16-.37-.43-.73-.92-1.08-1.48-.35-.56-.65-1.03-.92-1.4-.61-1.01-1.08-1.73-1.4-2.14-.32-.41-.49-.65-.52-.7-.03.03-.15.19-.38.5-.23.31-.47.64-.72,1-.25.36-.49.69-.72.98-.23.29-.35.45-.38.48-.21.29-.42.58-.62.86-.2.28-.41.55-.62.82-.05.05-.1.12-.14.2s-.09.15-.14.2c-.37.45-.76.89-1.16,1.32s-.87.75-1.4.96c-.21.11-.45.16-.72.16s-.49-.07-.66-.2-.37-.31-.58-.52c-.43-.48-.64-1.04-.64-1.68.03-.48.14-.93.34-1.36.2-.43.41-.83.62-1.2.05-.05.21-.28.46-.68.25-.4.55-.89.9-1.48.35-.59.71-1.22,1.1-1.9.39-.68.76-1.32,1.12-1.92.36-.6.67-1.13.94-1.58.27-.45.45-.73.56-.84.16-.29.29-.57.38-.84.09-.27.15-.55.18-.84.05-.43.08-.85.08-1.26v-9.18c0-.24.01-.49.04-.76,0-.29.03-.59.08-.88.05-.29.11-.56.16-.8.05-.16.13-.33.22-.52.09-.19.18-.36.26-.52.13-.21.31-.37.54-.48.23-.11.47-.19.74-.24l.08-.04c.17-.04.32-.06.43-.06M127.71,0c-.79,0-1.5.08-2.17.25-.53.13-1.05.34-1.55.61-.98-.48-2.07-.74-3.24-.74-.29,0-.59.01-.89.04-.58.05-1.15.19-1.69.39-1.5.55-2.75,1.53-3.62,2.86-.24-.38-.51-.72-.82-1.02-.67-.67-1.45-1.17-2.34-1.51-.62-.23-1.2-.37-1.77-.43-.19-.02-.39-.03-.6-.03-.53,0-1.06.07-1.63.21l-.54.13-.11.06c-.38.11-.75.26-1.1.42-1.09.51-2.01,1.32-2.65,2.35l-.13.2-.11.21-.26.53c-.19.39-.36.78-.49,1.17l-.08.24-.06.25c-.07.3-.13.63-.2,1-.09.49-.14,1-.16,1.51-.03.35-.04.69-.04,1.03v9.18c0,.15,0,.3-.02.46-.16.24-.32.51-.49.79-.26.44-.56.95-.92,1.54-.38.63-.77,1.3-1.18,2.02-.37.65-.72,1.26-1.06,1.82-.32.54-.59.99-.82,1.35-.03.04-.05.08-.08.12l-.16.16-.34.59c-.27.48-.54,1-.8,1.55-.48,1.02-.75,2.1-.81,3.21v.14s0,.14,0,.14c0,1.87.66,3.6,1.9,5l.1.11.1.1c.37.37.71.67,1.06.94,1.05.81,2.34,1.24,3.72,1.24.96,0,1.88-.2,2.73-.58,1.15-.49,2.17-1.2,3.03-2.12.36-.38.71-.77,1.05-1.17.1.12.19.23.29.35.45.55.9,1.04,1.32,1.46,1.26,1.26,2.91,1.95,4.66,1.95h.43c.28-.04.56-.08.83-.13.18.15.36.29.56.42.77.54,1.68.89,2.7,1.04.51.08.95.11,1.36.11,1.41,0,2.52-.34,3.36-.77.57.31,1.2.54,1.86.69.56.13,1.13.2,1.69.2,1.38,0,2.72-.4,3.89-1.16l.06-.04.06-.04c1.06-.74,1.9-1.73,2.43-2.86.53-1.13.85-2.35.92-3.61.05-.74.07-1.52.07-2.31v-10c0-1.89.01-3.77.04-5.57.03-1.91.01-3.92-.04-5.98v-.36s-.02-.37-.02-.37l-.06-1.43c-.05-1.16-.31-2.29-.76-3.37-.46-1.17-1.15-2.15-2.05-2.93-1.21-1.04-2.73-1.6-4.39-1.6h0Z"/>
      </g>
      <g>
        <path class="cls-2" d="M137.76,37.32c-.41,0-.83-.01-1.27-.04-1.17-.07-2.21-.47-3.07-1.19l-.09-.08c-1.37-1.24-1.66-2.63-1.66-3.57,0-.83.23-1.66.68-2.47.52-.92,1.28-1.6,2.21-1.97.65-.26,1.32-.42,2-.47-.23-.21-.45-.45-.65-.72-.65-.88-1.03-1.92-1.12-3.09-.02-.2-.05-.66-.07-1.29l-.04-1.69c-.01-.61-.02-1.17-.02-1.7v-1.95c-.03-.44-.02-.91.04-1.39.09-.84.42-1.61.97-2.29.29-.39.66-.72,1.08-1-.49-.33-.98-.81-1.39-1.53-.66-1.17-.85-2.47-.55-3.77l.03-.11c.32-1.15,1.1-2.09,2.21-2.65.67-.34,1.23-.54,1.75-.65.39-.09.77-.14,1.15-.14h2.06c.44,0,.99,0,1.63.02.61.01,1.25.02,1.93.02s1.36,0,2.05-.02c.72-.01,1.39-.02,1.99-.02h8.08c.5,0,1,.01,1.51.04.66.04,1.3.16,1.92.35,1.42.41,2.46,1.44,2.89,2.89.26.86.38,1.71.38,2.54v5.28c0,.29-.02.66-.08,1.13-.05.42-.12.86-.22,1.32-.11.53-.28,1.05-.5,1.54-.28.63-.65,1.15-1.12,1.53.61.36,1.41,1.08,1.81,2.41l.03.1c.25,1.02.21,2.02-.13,2.97-.27.75-.71,1.38-1.31,1.86.43.07.83.17,1.22.29.71.22,1.39.61,2.02,1.15l.07.06.07.07c.85.85,1.29,1.94,1.29,3.17,0,.52-.08,1.06-.23,1.61-.19.69-.49,1.27-.89,1.73l-.06.07-.07.07c-.49.49-1.09.86-1.78,1.08-.46.15-.92.26-1.37.32-.41.06-.78.08-1.12.08h-22.78s-.1,0-.15,0c-.2.02-.4.03-.59.03-.24.01-.49.02-.75.02Z"/>
        <path class="cls-1" d="M157.69,6.08c.45,0,.91.01,1.36.04.45.03.89.11,1.32.24.64.19,1.05.59,1.24,1.22.19.63.28,1.23.28,1.82v5.28c0,.21-.02.49-.06.84s-.1.71-.18,1.08c-.08.37-.19.73-.34,1.06-.15.33-.33.57-.54.7-.37.21-.73.34-1.08.38-.21.02-.41.04-.61.04-.13,0-.26,0-.39-.02h-15.8v3.2h16.54c.23,0,.45.01.66.04.4.03.77.14,1.1.34.33.2.57.53.7.98.13.53.11,1.04-.06,1.52-.17.48-.5.83-.98,1.04-.32.13-.65.22-.98.26-.33.04-.65.06-.94.06h-6.88l.04,3.76c.64,0,1.23,0,1.78-.02.55-.01,1.09-.02,1.64-.02s1.09,0,1.64.02c.55.01,1.13.02,1.74.02.19.01.38.02.57.02.28,0,.56-.01.83-.04.19-.02.39-.03.58-.03.25,0,.5.02.74.05.05.02.11.03.16.03.03,0,.05,0,.08,0,.08-.01.16-.02.24-.02.45.05.87.14,1.26.26.39.12.77.34,1.14.66.37.37.56.84.56,1.4,0,.29-.05.61-.14.94-.09.33-.22.59-.38.78-.21.21-.48.37-.8.48-.32.11-.63.18-.92.22-.29.04-.55.06-.78.06h-22.78c-.13,0-.27,0-.4.02-.13.01-.27.02-.4.02-.22.01-.45.02-.69.02-.36,0-.73-.01-1.11-.04-.64-.04-1.19-.25-1.64-.62-.56-.51-.84-1.08-.84-1.72,0-.4.12-.81.36-1.24.24-.43.56-.72.96-.88.53-.21,1.09-.32,1.66-.32s1.15-.01,1.74-.04h.2c1.28-.03,2.57-.04,3.88-.04s2.63.01,3.96.04l-.04-3.76h-5.82c-.57,0-1.15-.01-1.74-.04-.56-.05-1.03-.33-1.4-.84-.37-.51-.59-1.11-.64-1.8-.03-.24-.05-.63-.06-1.16-.01-.53-.03-1.09-.04-1.68-.01-.59-.02-1.13-.02-1.64v-2.04c-.03-.32-.02-.66.02-1.02s.18-.69.42-.98c.35-.45.83-.74,1.46-.86.63-.12,1.23-.18,1.82-.18.13,0,.35.01.66.04.15.01.29.02.41.02s.23,0,.33-.02h14.2v-3.36h-14.6c-.13,0-.28,0-.44.02-.16.01-.31.02-.44.02-.16,0-.33,0-.5.02-.17.01-.34.02-.5.02-.56,0-1.01-.05-1.36-.16-.45-.11-.83-.41-1.12-.92-.35-.61-.44-1.27-.28-1.96.13-.48.44-.84.92-1.08s.87-.39,1.16-.44c.21-.05.42-.08.62-.08h2.06c.43,0,.95,0,1.58.02.63.01,1.29.02,1.98.02s1.39,0,2.1-.02,1.35-.02,1.94-.02h8.08M157.69,1.08h-8.08c-.62,0-1.3,0-2.04.02-.67.01-1.34.02-2,.02s-1.28,0-1.87-.02c-.67-.01-1.23-.02-1.69-.02h-2.06c-.55,0-1.12.06-1.68.19-.73.15-1.48.42-2.34.86-1.75.87-2.99,2.37-3.5,4.21l-.03.11-.02.11c-.44,1.92-.17,3.84.8,5.55.05.09.11.18.16.27-.61.92-1,1.96-1.12,3.06-.07.59-.08,1.18-.05,1.74v1.87c0,.54,0,1.13.02,1.76.01.59.03,1.15.04,1.69.02.65.04,1.12.08,1.5.06.74.21,1.45.44,2.12-1.07.62-1.95,1.52-2.58,2.64-.67,1.18-1,2.43-1,3.69,0,2.05.88,3.98,2.49,5.43l.09.08.09.07c1.26,1.04,2.82,1.64,4.51,1.75.49.03.97.05,1.43.05.28,0,.55,0,.82-.02.24,0,.47-.02.71-.04h22.74c.45,0,.93-.03,1.46-.11.6-.08,1.21-.23,1.82-.43,1.06-.35,1.99-.92,2.76-1.69l.14-.14.13-.15c.63-.74,1.1-1.64,1.39-2.68.22-.78.33-1.55.33-2.3,0-1.88-.72-3.63-2.02-4.93l-.14-.14-.15-.13c-.36-.31-.73-.58-1.12-.82.42-1.34.46-2.76.12-4.16l-.03-.1-.03-.1c-.21-.72-.52-1.38-.92-1.96.04-.09.08-.18.12-.27.28-.65.5-1.33.65-2.03.11-.52.2-1.04.26-1.55.06-.54.09-1,.09-1.41v-5.28c0-1.06-.16-2.16-.49-3.24-.67-2.25-2.34-3.91-4.59-4.58-.8-.24-1.63-.39-2.47-.45-.56-.03-1.12-.05-1.66-.05h0Z"/>
      </g>
      <g>
        <path class="cls-2" d="M30.05,88c-.4-.01-.74-.02-1.04-.02H11.85c-.58,0-1.14,0-1.69-.02-.53-.01-1.12-.03-1.78-.06h-.12c-1.38-.13-2.52-.84-3.22-1.99-.42-.7-.71-1.43-.88-2.17-.18-.93-.26-1.8-.24-2.65.01-.66.02-1.33.02-2.01,0-.44-.02-.87-.05-1.3-.05-.6-.06-1.22-.02-1.83.03-.52.07-1.02.13-1.52.11-.91.46-1.75,1.04-2.49l.11-.13c.35-.39.74-.72,1.16-1-.96-.34-1.81-.98-2.5-1.91-.83-1.09-1.26-2.36-1.26-3.74,0-1.12-.01-2.17-.04-3.15-.03-1.06-.01-2.2.04-3.4.02-.63.03-1.31.02-2.02-.02-1.21.26-2.33.82-3.33.36-.68.93-1.28,1.66-1.74.67-.42,1.38-.68,2.11-.78.22-.03.44-.04.65-.04.6,0,1.19.12,1.76.34.85.34,1.55.95,2.04,1.74.74,1.23,1.09,2.53,1.07,3.89-.01.89-.02,1.79-.02,2.71,0,.62,0,1.21.02,1.78,0,.17.01.35.02.53,0,0,8.21.23,8.21.23.89,0,1.75.32,2.44.92.46.41.82.88,1.07,1.43v-8.02c-.03-.37,0-.78.06-1.31.08-.77.28-1.46.57-2.04.36-.75,1.32-2.11,3.59-2.33.23-.03.53-.05.81-.05,1.8,0,2.9.8,3.5,1.47l.08.08.07.09c.32.43.56.87.71,1.32.08.24.15.48.21.73.14.46.21.99.23,1.65.01.5,0,.91-.02,1.26v.75c.06,0,.11,0,.16.01.42.04.71.08.9.12,1.01.2,1.78.56,2.35,1.09.58.54.96,1.23,1.13,2,.12.48.18,1.01.18,1.58,0,.84-.2,1.61-.6,2.26-.73,1.21-1.91,1.96-3.33,2.1-.25.03-.52.05-.79.07v.82c0,1.01-.26,1.98-.76,2.81.53.36.95.83,1.26,1.4.61,1.16.65,2.44.12,3.61-.07.16-.15.31-.24.46.38.52.75,1.27.86,2.31.15,1.46-.35,2.45-.84,3.04.47.72.69,1.61.61,2.6-.08,1.44-.79,2.3-1.37,2.76-.57.46-1.24.77-2,.93-.49.11-1.01.16-1.54.16h-.26ZM24.78,69.84s0-.02-.01-.04c-.13-.42-.22-.78-.28-1.1-.2.43-.47.81-.8,1.14,0,0,.92,0,1.09,0Z"/>
        <path class="cls-1" d="M29.45,53c.71,0,1.26.21,1.64.64.16.21.27.42.34.62.07.2.13.41.18.62.08.24.13.59.14,1.04.01.45,0,.81-.02,1.08v3.24c.11,0,.31,0,.6.02s.6.03.92.04c.32.01.63.03.92.06.29.03.51.05.64.08.53.11.91.26,1.12.46.21.2.35.45.4.74.08.29.12.63.12,1.02s-.08.71-.24.98c-.32.53-.8.83-1.44.9-.64.07-1.35.11-2.12.14h-.92v3.24c0,.69-.2,1.3-.6,1.82-.4.52-1.01.78-1.84.78-.45,0-.83-.09-1.12-.28-.53-.32-.87-.71-1.02-1.18-.15-.47-.22-.81-.22-1.02v-11.96c-.03-.11-.01-.4.04-.88.05-.48.16-.88.32-1.2.27-.56.8-.88,1.6-.96.2-.03.38-.04.56-.04M7.82,53.18c.28,0,.55.05.82.16.36.15.65.39.86.74.48.8.71,1.65.7,2.54-.01.89-.02,1.81-.02,2.74,0,.64,0,1.25.02,1.84.01.59.06,1.21.14,1.88.03.32.11.55.24.7.13.15.29.25.48.3.19.05.4.08.64.08h.72l8.44.24c.35,0,.63.1.86.3.23.2.39.44.5.72.11.28.17.57.2.88.03.31.01.58-.04.82-.08.61-.39,1.03-.92,1.26-.53.23-1.16.34-1.88.34h-10.44c-.8,0-1.45-.09-1.96-.26-.51-.17-.96-.53-1.36-1.06-.51-.67-.76-1.41-.76-2.24,0-1.15-.01-2.22-.04-3.22-.03-1-.01-2.07.04-3.22.03-.69.03-1.42.02-2.18-.01-.76.15-1.45.5-2.06.19-.35.46-.63.82-.86.36-.23.73-.37,1.12-.42.1-.01.2-.02.3-.02M29.33,72.23c.32,0,.64.02.96.05.48.05.93.15,1.34.3.41.15.71.39.9.74.24.45.25.91.04,1.38-.21.47-.53.73-.96.78-.68.12-1.33.18-1.97.18-.07,0-.13,0-.19,0-.69-.01-1.41-.02-2.16-.02h-14.4c-.21,0-.41-.01-.6-.04-.09-.01-.19-.02-.29-.02s-.2,0-.31.02c-.24.03-.38.06-.42.1s-.06.17-.06.38v.96c.08.13.21.19.37.19.04,0,.08,0,.13-.01.23-.04.43-.06.62-.06.34-.04.65-.06.93-.06.07,0,.14,0,.21,0,.33.01.73.02,1.18.02.77,0,1.55,0,2.32.02.77.01,1.55.02,2.32.02h11.2c.29,0,.63,0,1,.02.37.01.69.13.96.34.29.29.47.71.52,1.24.05.53-.05.95-.32,1.24-.16.19-.35.31-.58.38-.23.07-.49.11-.78.14-.52.06-1.04.09-1.57.09-.18,0-.35,0-.53,0-.71-.03-1.34-.04-1.9-.04h-15.56c-.13,0-.27.03-.4.08l-.08,1.28c.13.05.28.09.44.1.16.01.31.03.44.06.21.03.35.04.42.04h17.94c.56,0,1.09.13,1.58.4.49.27.71.75.66,1.44-.03.45-.17.79-.44,1-.27.21-.59.36-.96.44-.32.07-.66.1-1.01.1-.06,0-.12,0-.18,0-.43-.01-.8-.02-1.12-.02H11.85c-.56,0-1.1,0-1.62-.02-.52-.01-1.1-.03-1.74-.06-.59-.05-1.02-.31-1.3-.78-.28-.47-.47-.94-.58-1.42-.13-.69-.19-1.38-.18-2.06.01-.68.02-1.37.02-2.06,0-.51-.02-1.01-.06-1.5-.04-.49-.05-.99-.02-1.5.03-.45.07-.91.12-1.36.05-.45.23-.87.52-1.24.72-.8,1.68-1.2,2.88-1.2h.88c.13.03.24.04.32.04h8.2c1.39,0,2.77,0,4.16.02.28,0,.56,0,.84,0,1.11,0,2.23-.02,3.36-.06.32,0,.72-.01,1.2-.04.16,0,.32-.01.48-.01M29.45,48c-.37,0-.76.02-1.15.07-2.49.28-4.49,1.63-5.51,3.73-.41.84-.68,1.79-.79,2.84-.07.62-.11,1.16-.07,1.68v3.16c-.32-.05-.65-.08-.98-.09l-5.78-.16c0-.86,0-1.71.02-2.54.03-1.84-.45-3.58-1.41-5.19l-.02-.03-.02-.03c-.77-1.25-1.89-2.19-3.23-2.74-.87-.35-1.77-.53-2.7-.53-.33,0-.66.02-.98.07-1.1.15-2.14.53-3.1,1.14-1.1.69-1.94,1.59-2.54,2.68-.77,1.39-1.15,2.92-1.12,4.57.01.66,0,1.3-.02,1.9-.06,1.22-.07,2.42-.04,3.54.03.96.04,2,.04,3.09,0,1.92.62,3.74,1.78,5.27.21.28.44.55.68.8-.53.89-.86,1.88-.98,2.91-.06.54-.11,1.1-.15,1.65-.04.75-.03,1.48.03,2.2.03.36.04.73.04,1.1,0,.66,0,1.32-.02,1.96-.02,1.02.07,2.07.27,3.1v.07s.03.06.03.06c.22,1,.62,1.99,1.18,2.92,1.09,1.83,2.96,2.99,5.13,3.19h.12s.13.02.13.02c.67.03,1.27.05,1.81.06.56.01,1.15.02,1.75.02h17.16c.27,0,.59,0,.96.02.12,0,.23,0,.34,0,.71,0,1.4-.07,2.06-.21,1.14-.24,2.16-.73,3.04-1.43,1.36-1.09,2.18-2.71,2.3-4.56.07-.92-.04-1.79-.29-2.59.46-1.04.64-2.21.52-3.44-.09-.85-.29-1.57-.55-2.19.55-1.68.4-3.5-.44-5.09v-.02s-.02-.02-.02-.02c-.15-.28-.32-.54-.5-.79.08-.3.15-.6.2-.9,1.61-.49,2.98-1.55,3.87-3.03.63-1.06.95-2.25.95-3.56,0-.76-.08-1.48-.25-2.15-.28-1.26-.91-2.38-1.85-3.26-.71-.67-1.57-1.15-2.6-1.47,0,0,0,0,0,0-.03-.87-.13-1.6-.32-2.26-.08-.29-.16-.57-.25-.84-.24-.71-.6-1.39-1.08-2.03l-.14-.18-.15-.17c-1.33-1.48-3.23-2.3-5.36-2.3h0Z"/>
      </g>
      <g>
        <path class="cls-2" d="M46.64,88.02c-.61,0-1.23-.01-1.85-.04-1.19-.06-2.24-.52-3.05-1.33-.79-.79-1.26-1.84-1.36-3.03-.05-.45-.09-1.03-.11-1.66-.01-.57-.02-1.05-.02-1.44v-.26c-.03-.42-.02-.88.03-1.39.09-.87.41-1.67.94-2.33-.08-.1-.16-.21-.23-.33-.71-1.09-.92-2.38-.58-3.68l.03-.13.05-.12c.17-.46.43-.87.75-1.22-.56-.34-1.04-.8-1.41-1.36-.42-.6-.73-1.38-.88-2.28-.11-.6-.18-1.19-.23-1.77-.05-.6-.06-1.12-.05-1.59l.02-.55v-1.84c0-.4.01-.83.04-1.31,0-.48,0-.92.02-1.3.01-.34.02-.64.02-.91v-1.32c0-.29.02-.61.05-.96.04-.34.09-.68.16-1.02.12-.56.32-1.06.61-1.49.4-.63.87-1.13,1.41-1.49.53-.36,1.17-.62,1.9-.77.26-.05.55-.08.95-.11.23-.01.43-.03.61-.05.42-.04.8-.06,1.2-.06h9.04c.7,0,1.44.06,2.21.16,1,.14,1.92.47,2.72.98.8.48,1.44,1.2,1.81,2.05.25.58.42,1.21.5,1.87,0,.02,0,.04,0,.06,0-.29.01-.64.07-1.1.09-.77.28-1.46.57-2.04.35-.75,1.32-2.1,3.59-2.33.23-.03.53-.05.81-.05,1.8,0,2.9.8,3.5,1.47l.08.08.07.09c.32.43.56.87.71,1.33.08.24.15.48.21.73.14.46.21.99.23,1.65.01.5,0,.91-.02,1.26v.35c.05,0,.1,0,.16.01.42.04.71.08.89.12,1.03.21,1.79.56,2.36,1.09.58.55.97,1.24,1.13,2.01.12.48.18,1.01.18,1.58,0,.85-.2,1.61-.6,2.27-.72,1.2-1.9,1.95-3.32,2.1-.26.03-.52.05-.8.07v1.22c0,1.24-.39,2.39-1.12,3.34,0,0,0,0,0,0,.86.87,1.32,2.04,1.32,3.41v3.12c0,.74-.16,1.45-.47,2.13-.15.33-.35.64-.59.93.37.39.72.92.95,1.63.69,2.25-.31,4.24-2.54,5.09-.48.2-1.07.34-1.66.39-.41.03-.79.05-1.15.05h-19.86ZM61.96,65.72c0,.39-.03.81-.08,1.24-.06.52-.19,1.04-.37,1.55-.13.36-.29.71-.48,1.03h1.19c-.17-.6-.25-1.07-.25-1.5v-2.32ZM61.93,64.03c-.02.15-.03.29-.02.43.03.4.05.82.05,1.26v-1.89l-.03.19ZM61.94,63.07c.01.2.02.38.02.57v-.67l-.02.1ZM48.9,62.46c.45-.02.89-.03,1.28-.03.2,0,.38,0,.55,0,.37.01.83.02,1.38.02,0-.12,0-.25,0-.38,0-.53.01-.89.03-1.09v-.03l-3.59-.06v.17l-.02.16c-.01.1-.02.19-.02.27v.96c.13,0,.25,0,.38,0ZM61.96,58.8c0,.53-.01.89-.03,1.08,0,.07,0,.25.02.49v.08s0-1.64,0-1.64Z"/>
        <path class="cls-1" d="M66.98,53c.71,0,1.26.21,1.64.64.16.21.27.42.34.62.07.2.13.41.18.62.08.24.13.59.14,1.04.01.45,0,.81-.02,1.08v2.84c.11,0,.31,0,.6.02.29.01.6.03.92.04.32.01.63.03.92.06.29.03.51.05.64.08.53.11.91.26,1.12.46.21.2.35.45.4.74.08.29.12.63.12,1.02s-.08.71-.24.98c-.32.53-.8.83-1.44.9s-1.35.11-2.12.14h-.92v3.64c0,.69-.2,1.3-.6,1.82-.4.52-1.01.78-1.84.78-.45,0-.83-.09-1.12-.28-.53-.32-.87-.71-1.02-1.18-.15-.47-.22-.81-.22-1.02v-11.96c-.03-.11-.01-.4.04-.88.05-.48.16-.88.32-1.2.27-.56.8-.88,1.6-.96.2-.03.38-.04.56-.04M54.7,53.4c.59,0,1.21.05,1.86.14.65.09,1.23.3,1.74.62.4.24.68.55.84.92.16.37.27.77.32,1.2.05.43.07.86.04,1.3-.03.44-.04.85-.04,1.22,0,.43,0,.71-.02.86-.01.15,0,.43.02.86v2.2c-.03.13-.03.28-.02.44.01.16.02.32.02.48-.05.35-.07.69-.04,1.02.03.33.04.69.04,1.06,0,.29-.02.61-.06.94-.04.33-.12.67-.24,1-.12.33-.28.63-.48.9-.2.27-.46.45-.78.56-.66.28-1.36.42-2.08.42-.03,0-.07,0-.1,0-.76-.01-1.5-.02-2.22-.02-.19.03-.61.04-1.26.04s-1.35,0-2.1-.02c-.75-.01-1.45-.02-2.12-.02h-1.36c-.48,0-.95,0-1.42-.02-.47-.01-.91-.05-1.34-.12-.43-.07-.81-.18-1.16-.34-.35-.16-.63-.4-.84-.72-.24-.35-.41-.79-.5-1.32-.09-.53-.16-1.05-.2-1.54-.04-.49-.05-.93-.04-1.3.01-.37.02-.57.02-.6v-1.88c0-.37.01-.79.04-1.24,0-.48,0-.91.02-1.28.01-.37.02-.71.02-1v-1.32c0-.21.01-.45.04-.7.03-.25.07-.51.12-.76.05-.25.13-.46.24-.62.24-.37.49-.65.74-.82.25-.17.58-.3.98-.38.13-.03.33-.05.6-.06.27-.01.52-.03.76-.06.29-.03.6-.04.92-.04h9.04M48.9,64.96h.04c.47-.02.88-.03,1.24-.03.17,0,.34,0,.48,0,.45.01,1.04.02,1.76.02.21,0,.43,0,.66.02.05,0,.09,0,.14,0,.18,0,.35-.02.52-.06.21-.03.36-.09.44-.2s.15-.24.2-.4c.05-.21.08-.39.08-.52.11-.51.16-1.08.16-1.72,0-.43,0-.72.02-.88.01-.16,0-.45-.02-.88-.03-.21-.03-.43-.02-.64.01-.21,0-.43-.06-.64-.11-.29-.28-.46-.52-.5-.24-.04-.48-.06-.72-.06l-4.92-.08h-.66c-.2,0-.38.03-.54.08-.37.03-.68.19-.92.48-.11.13-.17.33-.18.6-.01.27-.02.43-.02.48v.88c-.03.21-.04.41-.04.58v.94c0,.32,0,.59.02.8.01.21.05.43.1.64.05.21.15.4.28.56.21.27.56.42,1.04.46s.96.06,1.44.06M46.86,72c.13,0,.25,0,.36.02.11.01.23.02.36.02h17.68c1.36,0,2.4.21,3.12.62.72.41,1.08,1.09,1.08,2.02v3.12c0,.37-.08.73-.24,1.08s-.45.65-.88.92c-.37.21-.73.33-1.08.34-.35.01-.68.02-1,.02h-18.6v1.88h20c.4.03.77.13,1.1.3.33.17.57.47.7.9.29.96-.05,1.63-1.04,2-.32.13-.65.21-.98.24-.33.03-.65.04-.94.04h-19.86c-.57,0-1.15-.01-1.74-.04-.56-.03-1.03-.23-1.4-.6-.37-.37-.59-.87-.64-1.48-.05-.45-.09-.95-.1-1.5-.01-.55-.02-1.01-.02-1.38v-.36c-.03-.29-.02-.64.02-1.04.04-.4.18-.75.42-1.04.35-.37.83-.61,1.46-.72.63-.11,1.23-.16,1.82-.16h.84c.11,0,.21,0,.3.02.09.01.18.02.26.02h17v-1.72h-17.4c-.13,0-.28,0-.44-.02-.05,0-.1,0-.15,0-.1,0-.2,0-.29.03h-1.72c-.21,0-.43-.03-.64-.08-.21-.05-.42-.11-.62-.16-.2-.05-.37-.19-.5-.4-.35-.53-.44-1.11-.28-1.72.08-.21.2-.38.36-.5s.35-.22.56-.3c.21-.08.42-.14.62-.18.2-.04.38-.07.54-.1.21-.03.42-.05.62-.06.2-.01.42-.02.66-.02h.68M66.98,48c-.37,0-.76.02-1.15.07-1.79.2-3.33.96-4.43,2.15-.16-.11-.32-.22-.48-.32-1.09-.68-2.32-1.12-3.65-1.31-.89-.13-1.75-.19-2.57-.19h-9.04c-.46,0-.92.02-1.37.06h-.06s-.06.01-.06.01c-.14.02-.28.03-.43.03-.56.03-.96.08-1.34.15-1.07.21-2.02.6-2.83,1.16-.8.55-1.51,1.29-2.11,2.21-.45.69-.77,1.47-.95,2.34-.09.4-.15.83-.2,1.26-.04.42-.07.82-.07,1.22v1.32c0,.24,0,.52-.02.82-.01.38-.02.82-.02,1.31-.03.49-.04.96-.04,1.38v1.81l-.02.49c-.02.57,0,1.18.05,1.88.05.65.14,1.32.26,2,.21,1.22.65,2.33,1.29,3.26.1.15.2.29.31.43l-.03.08-.07.25c-.41,1.57-.28,3.18.35,4.63-.29.66-.47,1.36-.54,2.09-.06.62-.08,1.18-.04,1.72v.18c0,.41,0,.91.02,1.5.02.67.06,1.31.13,1.9.17,1.75.89,3.3,2.07,4.49,1.26,1.26,2.88,1.97,4.69,2.06.68.03,1.34.05,1.98.05h19.86c.42,0,.86-.02,1.33-.06.85-.07,1.66-.26,2.44-.58,3.39-1.33,5.03-4.65,3.97-8.1-.11-.35-.24-.68-.4-1,.41-.95.61-1.95.61-2.98v-3.12c0-1.3-.3-2.51-.86-3.56.31-.72.52-1.5.61-2.3,1.59-.5,2.94-1.56,3.82-3.02.63-1.04.95-2.24.95-3.55,0-.76-.08-1.48-.25-2.15-.28-1.25-.91-2.37-1.85-3.25-.72-.67-1.59-1.16-2.63-1.48-.04-.7-.14-1.3-.31-1.85-.07-.28-.16-.56-.25-.83-.24-.72-.6-1.4-1.09-2.05l-.14-.18-.15-.17c-1.33-1.48-3.23-2.3-5.36-2.3h0Z"/>
      </g>
      <g>
        <path class="cls-2" d="M89.87,88.14c-.52,0-1.04-.07-1.54-.2-.61-.14-1.25-.44-1.83-.87-.78-.57-1.29-1.34-1.48-2.23-.13-.48-.16-.98-.08-1.48.04-.29.11-.58.21-.84.27-.92.81-1.71,1.59-2.28.45-.33.92-.63,1.41-.89.17-.1.35-.2.53-.3-.47-.19-.89-.41-1.27-.65-.9-.57-1.49-1.43-1.71-2.46l-.03-.14v-.14c-.12-1.01.08-2.01.56-2.97.02-.04.04-.08.06-.12-.48-.11-.93-.26-1.35-.45-.78-.36-1.41-.9-1.88-1.61-.42-.6-.73-1.38-.88-2.27-.11-.6-.18-1.19-.23-1.77-.05-.6-.06-1.12-.05-1.59l.02-.55v-1.84c0-.4.01-.83.04-1.31,0-.48,0-.95.02-1.42.01-.44.02-.83.02-1.19v-1.72c0-.29.02-.61.05-.96.04-.34.09-.68.16-1.02.12-.56.32-1.06.61-1.49.4-.63.87-1.13,1.41-1.49.53-.36,1.17-.62,1.9-.77.26-.05.55-.08.95-.11.23-.01.43-.03.61-.05.42-.04.8-.06,1.2-.06h9.04c.7,0,1.44.06,2.21.16,1,.14,1.92.47,2.72.98.8.48,1.44,1.2,1.81,2.05.25.58.42,1.21.5,1.87.07.58.09,1.18.06,1.76-.02.39-.04.75-.04,1.07,0,.45,0,.9-.02,1.34-.01.34,0,.68.02,1.03v.16s0,2.45,0,2.45l-.02.1c.01.2.02.39.02.57v.19l-.03.19c-.02.15-.03.29-.02.43.03.4.05.82.05,1.26,0,.39-.03.81-.08,1.24-.06.52-.19,1.04-.37,1.55-.14.38-.31.74-.51,1.07h1.52c-.12-.35-.22-.75-.29-1.2l-.03-.19v-12.75c-.03-.37,0-.78.06-1.31.08-.77.28-1.46.57-2.04.36-.75,1.32-2.11,3.59-2.33.23-.03.53-.05.81-.05,1.8,0,2.9.8,3.5,1.47l.08.08.07.09c.32.43.56.87.71,1.32.08.24.15.49.22.75.13.44.2.91.22,1.38.02.37.01.73-.02,1.1v1.55c.06,0,.11,0,.16.01.41.04.71.08.9.12,1.01.2,1.78.56,2.35,1.09.57.54.96,1.23,1.13,2,.12.48.18,1.01.18,1.58,0,.85-.2,1.61-.6,2.27-.72,1.21-1.9,1.95-3.33,2.1-.26.03-.52.05-.8.07v.97c-.04.36-.09.73-.16,1.1-.1.58-.3,1.14-.59,1.67-.07.15-.16.3-.26.44.06.05.11.1.17.15.68.65,1.11,1.5,1.28,2.52l.05.32-.03.32c-.1,1.1-.46,2.02-1.05,2.73-.45.54-.98.96-1.59,1.26.2.11.4.22.58.33.56.33,1.12.74,1.65,1.21.62.55,1.05,1.25,1.25,2.03.18.69.19,1.39.04,2.08-.16.69-.46,1.31-.92,1.85-.55.66-1.3,1.11-2.18,1.31-.62.13-1.22.2-1.8.2-.67,0-1.34-.08-2.01-.24-1.08-.25-2.1-.61-3.03-1.06-.21-.1-.49-.25-.9-.47-.38-.21-.82-.44-1.31-.72-.48-.27-2.52-1.42-3-1.68-.31-.17-.59-.33-.86-.47-.52.31-1.08.63-1.68.98-.66.38-1.26.74-1.82,1.07-.48.28-.96.58-.96.58l-.12.07c-.48.25-.96.5-1.45.74-.53.26-1.07.49-1.61.7-.63.24-1.3.43-1.99.55-.36.06-.73.1-1.09.1ZM92.13,63.26c.45-.02.89-.03,1.28-.03.2,0,.38,0,.55,0,.37.01.83.02,1.38.02,0-.12,0-.25,0-.38,0-.45,0-.91.02-1.36,0-.19,0-.37,0-.56l-3.58-.06v.97l-.02.16c-.01.1-.02.19-.02.27v.96c.13,0,.25,0,.38,0Z"/>
        <path class="cls-1" d="M110.45,53c.71,0,1.26.21,1.64.64.16.21.27.42.34.62.07.2.13.41.18.62.08.27.13.55.14.84.01.29,0,.59-.02.88h0s0,0,0,0v4.04c.11,0,.31,0,.6.02.29.01.6.03.92.04.32.01.63.03.92.06.29.03.51.05.64.08.53.11.91.26,1.12.46.21.2.35.45.4.74.08.29.12.63.12,1.02s-.08.71-.24.98c-.32.53-.8.83-1.44.9-.64.07-1.35.11-2.12.14h-.92v3.16c-.03.29-.07.59-.12.9-.05.31-.16.61-.32.9-.16.32-.39.59-.68.8-.37.27-.81.4-1.32.4-.45,0-.83-.09-1.12-.28-.27-.16-.48-.36-.64-.6s-.29-.47-.38-.7c-.09-.23-.17-.51-.22-.86v-12.72c-.03-.11-.01-.4.04-.88.05-.48.16-.88.32-1.2.27-.56.8-.88,1.6-.96.2-.03.38-.04.56-.04M97.93,53.4c.59,0,1.21.05,1.86.14.65.09,1.23.3,1.74.62.4.24.68.55.84.92.16.37.27.77.32,1.2.05.43.07.86.04,1.3-.03.44-.04.85-.04,1.22,0,.43,0,.85-.02,1.26-.01.41,0,.83.02,1.26v2.2c-.03.13-.03.28-.02.44.01.16.02.32.02.48-.05.35-.07.69-.04,1.02.03.33.04.69.04,1.06,0,.29-.02.61-.06.94-.04.33-.12.67-.24,1-.12.33-.28.63-.48.9-.2.27-.46.45-.78.56-.66.28-1.36.42-2.08.42-.03,0-.07,0-.1,0-.76-.01-1.5-.02-2.22-.02-.19.03-.61.04-1.26.04s-1.35,0-2.1-.02-1.45-.02-2.12-.02h-1.36c-.48,0-.95,0-1.42-.02-.47-.01-.91-.05-1.34-.12-.43-.07-.81-.18-1.16-.34-.35-.16-.63-.4-.84-.72-.24-.35-.41-.79-.5-1.32-.09-.53-.16-1.05-.2-1.54s-.05-.93-.04-1.3c.01-.37.02-.57.02-.6v-1.88c0-.37.01-.79.04-1.24,0-.48,0-.95.02-1.42.01-.47.02-.89.02-1.26v-1.72c0-.21.01-.45.04-.7.03-.25.07-.51.12-.76.05-.25.13-.46.24-.62.24-.37.49-.65.74-.82.25-.17.58-.3.98-.38.13-.03.33-.05.6-.06.27-.01.52-.03.76-.06.29-.03.6-.04.92-.04h9.04M92.13,65.76h.04c.47-.02.88-.03,1.24-.03.17,0,.33,0,.48,0,.45.01,1.04.02,1.76.02.21,0,.43,0,.66.02.05,0,.09,0,.14,0,.18,0,.35-.02.52-.06.21-.03.36-.09.44-.2s.15-.24.2-.4c.05-.21.08-.39.08-.52.11-.51.16-1.08.16-1.72,0-.43,0-.85.02-1.28.01-.43,0-.85-.02-1.28-.03-.21-.03-.43-.02-.64.01-.21,0-.43-.06-.64-.11-.29-.28-.46-.52-.5-.24-.04-.48-.06-.72-.06l-4.92-.08h-.66c-.2,0-.38.03-.54.08-.37.03-.68.19-.92.48-.11.13-.17.33-.18.6-.01.27-.02.43-.02.48v1.68c-.03.21-.04.41-.04.58v.94c0,.32,0,.59.02.8.01.21.05.43.1.64.05.21.15.4.28.56.21.27.56.42,1.04.46s.96.06,1.44.06M108.89,72.88c.48,0,.96,0,1.44.02.48.01.92.07,1.32.18.4.11.74.29,1.02.56.28.27.46.64.54,1.12-.05.59-.21,1.04-.48,1.36-.27.32-.59.55-.96.7-.37.15-.79.23-1.26.26-.23.01-.46.02-.69.02s-.44,0-.65-.02h-5.32c.05.03.26.14.62.34.36.2.79.43,1.28.7.49.27,1.03.55,1.6.84.57.29,1.11.57,1.6.82.49.25.93.47,1.3.66s.6.28.68.28c.53.24,1.01.49,1.44.74.43.25.85.57,1.28.94.24.21.4.47.48.78.08.31.09.61.02.9-.07.29-.2.56-.4.8-.2.24-.47.4-.82.48-.41.09-.82.13-1.24.13-.48,0-.96-.06-1.44-.17-.91-.21-1.75-.51-2.52-.88-.16-.08-.43-.22-.8-.42-.37-.2-.8-.43-1.28-.7s-.98-.55-1.5-.84c-.52-.29-1.02-.57-1.5-.84-.48-.27-.91-.5-1.3-.7-.39-.2-.67-.34-.86-.42-.11.05-.44.25-1,.58-.56.33-1.17.69-1.84,1.08-.67.39-1.28.75-1.84,1.08-.56.33-.88.53-.96.58-.45.24-.91.47-1.38.7-.47.23-.94.43-1.42.62s-.99.33-1.52.42c-.22.04-.44.06-.65.06-.31,0-.61-.04-.91-.12-.35-.08-.67-.23-.98-.46-.31-.23-.49-.5-.54-.82-.05-.16-.07-.33-.04-.5.03-.17.07-.33.12-.46.11-.43.34-.77.7-1.04.36-.27.74-.51,1.14-.72.45-.27.92-.52,1.4-.76.48-.24.96-.48,1.44-.72.51-.27,1-.52,1.48-.76s.96-.49,1.44-.76c.03-.03.17-.11.44-.24.27-.13.55-.28.86-.44.31-.16.59-.31.86-.46s.4-.25.4-.3h-6.44c-.53-.05-1.01-.15-1.44-.28-.37-.13-.73-.31-1.06-.52-.33-.21-.54-.51-.62-.88-.05-.53.05-1.07.32-1.6.27-.53.72-.83,1.36-.88.19-.03.38-.04.58-.04h18.5M110.45,48c-.37,0-.76.02-1.15.07-1.84.2-3.42,1-4.53,2.26-.2-.15-.41-.29-.63-.43-1.09-.68-2.32-1.12-3.65-1.31-.89-.13-1.75-.19-2.57-.19h-9.04c-.46,0-.92.02-1.37.06h-.06s-.06.01-.06.01c-.14.02-.28.03-.43.03-.56.03-.96.08-1.34.15-1.07.21-2.02.6-2.83,1.16-.8.55-1.51,1.29-2.11,2.22-.45.69-.77,1.47-.95,2.34-.09.4-.15.83-.2,1.26-.04.42-.07.82-.07,1.22v1.72c0,.33,0,.7-.02,1.12-.01.46-.02.94-.02,1.42-.03.49-.04.96-.04,1.38v1.81l-.02.49c-.02.57,0,1.18.05,1.88.05.65.14,1.32.26,2,.21,1.23.65,2.33,1.29,3.26.58.85,1.33,1.57,2.2,2.09-.09.62-.11,1.25-.04,1.88l.03.28.06.27c.2.93.6,1.79,1.16,2.52-.76.78-1.32,1.73-1.63,2.79-.13.39-.23.81-.3,1.23-.13.81-.08,1.65.13,2.44.33,1.45,1.19,2.73,2.43,3.65.83.62,1.76,1.05,2.75,1.29.69.17,1.4.26,2.11.26.5,0,1.01-.04,1.52-.13.86-.15,1.68-.38,2.47-.68.6-.23,1.2-.5,1.79-.78.52-.25,1.03-.51,1.53-.77l.23-.12.17-.12c.13-.08.38-.23.78-.47.55-.33,1.14-.68,1.79-1.05.16-.09.32-.18.47-.27.35.19.7.39,1.07.6.54.3,1.04.59,1.53.86.5.28.95.53,1.35.74.43.23.74.39.92.48l.03.02.03.02c1.1.53,2.29.95,3.54,1.24.86.2,1.73.3,2.59.3.76,0,1.53-.08,2.28-.24h.04s.04-.02.04-.02c1.41-.33,2.63-1.07,3.53-2.15.71-.85,1.19-1.83,1.44-2.9.25-1.09.23-2.19-.06-3.28-.32-1.23-.99-2.34-1.94-3.2.65-.99,1.04-2.16,1.16-3.49l.06-.64-.11-.64c-.16-.95-.49-1.84-.96-2.61.16-.43.28-.88.36-1.33.02-.12.04-.23.06-.35,1.63-.49,3.01-1.55,3.91-3.04.63-1.05.95-2.25.95-3.55,0-.76-.08-1.48-.25-2.15-.28-1.26-.92-2.39-1.86-3.27-.7-.66-1.56-1.14-2.59-1.46,0-.23,0-.46-.01-.69-.03-.67-.14-1.31-.31-1.93-.08-.3-.17-.6-.26-.89-.24-.71-.6-1.39-1.08-2.03l-.14-.18-.15-.17c-1.33-1.48-3.23-2.3-5.36-2.3h0Z"/>
      </g>
      <g>
        <path class="cls-2" d="M132.42,88.77c-.54,0-1.06-.08-1.56-.23-.4-.12-.77-.28-1.1-.48-.55-.25-1.02-.64-1.37-1.15-.21-.31-.39-.64-.54-.99-.12-.25-.22-.49-.31-.7-.1-.26-.19-.55-.27-.87l-.07-.3v-3.53h-6.02c-.37,0-.74-.02-1.12-.05-.44-.04-.86-.12-1.25-.26-.6-.12-1.17-.37-1.65-.75-.43-.33-.81-.73-1.15-1.21l-.07-.1c-.22-.35-.4-.72-.55-1.11-.24-.6-.31-1.25-.22-1.88.03-.45.12-.9.29-1.35.21-.57.55-1.08,1-1.53.31-.36.67-.62,1.02-.81-.18-.33-.33-.72-.44-1.17l-.07-.3v-.79c0-.35.05-.73.14-1.15l.04-.17.06-.16c.09-.25.19-.49.28-.71.19-.44.45-.83.76-1.17.24-.28.51-.53.79-.74.13-.1.25-.19.38-.3l.15-.12,2.97-1.79.09-.04c.19-.09.36-.17.53-.25-.12-.01-.24-.02-.37-.04l-.29-.04-.12-.05c-.06,0-.11,0-.15,0-.88,0-1.69-.23-2.39-.67-.54-.36-1-.83-1.45-1.46l-.17-.24-.11-.27c-.09-.21-.17-.48-.26-.79-.11-.4-.16-.8-.16-1.18,0-.29,0-.54.03-.78.04-.49.17-.97.4-1.42l.05-.09c.5-.91,1.21-1.61,2.1-2.08.33-.18.71-.35,1.1-.48.5-.17,1-.25,1.51-.25h1.16s.34.08.37.08c.24-.05.49-.08.76-.08h2.2c.01-.05.09-.27.11-.33.05-.28.13-.55.25-.81.04-.08.08-.18.12-.29l.23-.58.48-.4c.1-.08.23-.22.39-.4l.18-.2.22-.16c.44-.31.92-.54,1.44-.67.25-.06.52-.12.83-.19l.24-.05h.25c.65,0,1.34.11,2.12.35l.27.08.25.14c.25.15.51.31.77.49.28.2.52.4.74.61.51.46.88,1.05,1.07,1.7.07.23.12.47.15.71h4.39c.43,0,.87.04,1.29.13l.27.05.25.11c.19.08.38.16.59.24.48.18.91.42,1.29.71.46.32.84.72,1.15,1.2.29.44.5.94.65,1.48l.03.14c.33,1.55-.03,2.98-1.02,4.04l-.09.1-.1.09c-.29.25-.61.48-.96.7-.38.23-.8.43-1.25.6l-.11.04-.11.03c-.76.2-1.58.31-2.44.32.06.04.42.21.42.21l.2.15c.11.08.22.16.34.22.31.16.61.33.9.51.25.13.5.26.73.39.32.18.64.38.94.62.41.27.76.55,1.07.86.12.12.24.23.37.36.47.32.85.76,1.09,1.3.08.18.16.35.22.51l.15.36.03.39c.04.47.04.95,0,1.42v.13s-.03.13-.03.13c-.07.4-.21.78-.4,1.15l.07.05c.09.07.19.13.27.17.46.25.86.58,1.19.98l.12.14.1.15c.46.75.69,1.63.69,2.63,0,1.46-.59,2.71-1.67,3.53-.36.29-.78.55-1.26.75-.44.19-.88.33-1.32.42l-.13.02c-.39.06-.74.1-1.05.14-.35.05-.74.08-1.17.12h-.18s-5.29,0-5.29,0c0,.01,0,.03,0,.04.02.33.02.59.02.78v.88c0,.41-.03.86-.1,1.35l-.02.14c-.07.32-.14.63-.22.93-.09.33-.21.65-.35.96-.2.57-.52,1.07-.93,1.49-.25.25-.52.48-.81.7-.39.31-.84.55-1.35.73-.49.16-1,.25-1.51.25ZM134.57,70.73c-.26-.14-.55-.31-.87-.49l-.28-.16-.09-.09s-.56-.24-.56-.24l-.34-.33c-.07-.06-.15-.11-.23-.15l-.06.03c-.27.15-.54.29-.81.4-.14.06-.27.12-.39.18l-.08.04s-.16.07-.19.08l-.14.17-1.16.58h5.2Z"/>
        <path class="cls-1" d="M132.1,51.19c.4,0,.87.08,1.4.24.19.11.37.23.56.36.19.13.35.27.48.4.19.16.31.35.38.58.07.23.1.46.1.7l.12,1.8h6.72c.27,0,.53.03.8.08.24.11.49.21.74.3.25.09.47.22.66.38.21.13.39.31.54.54s.26.49.34.78c.16.75.03,1.35-.4,1.8-.19.16-.4.31-.64.46-.24.15-.51.27-.8.38-.61.16-1.28.24-2,.24h-1.64c-.19,0-.39-.01-.62-.04-.23-.03-.46-.04-.7-.04h-2.76v2.08c.35.21.71.4,1.08.56.05.05.12.09.2.12.08.03.16.07.24.12.08.05.16.1.24.14.08.04.16.09.24.14.13.08.26.16.38.24.12.08.25.15.38.2.21.13.47.27.76.4.27.19.51.35.74.5s.47.29.74.42c.24.19.49.35.76.48.27.13.52.28.76.44.27.13.52.27.76.4.24.13.48.29.72.48.29.19.54.38.74.58.2.2.42.41.66.62.13.05.23.15.3.3.07.15.13.29.18.42.03.35.03.69,0,1.04-.05.29-.2.57-.44.84-.11.24-.36.4-.76.48-.45.13-.89.2-1.32.2s-.87-.07-1.32-.2c-.91-.21-1.77-.53-2.6-.96-.35-.19-.68-.37-1-.54-.32-.17-.65-.34-1-.5-.29-.19-.59-.36-.88-.52-.29-.16-.63-.35-1-.56-.13-.13-.39-.28-.76-.44-.13-.13-.26-.24-.38-.32s-.25-.16-.38-.24c-.21-.13-.41-.25-.6-.36-.19-.11-.39-.23-.6-.36-.21.13-.44.26-.68.38-.24.12-.45.25-.64.38-.19.11-.37.2-.56.28-.19.08-.36.16-.52.24-.45.19-.75.36-.88.52-.37.19-.71.35-1,.5-.29.15-.59.31-.88.5-.29.16-.61.33-.94.5-.33.17-.69.35-1.06.54-.27.13-.53.27-.8.4-.27.13-.55.27-.84.4-.37.31-.82.46-1.34.46-.11,0-.23,0-.34-.02-.24-.03-.47-.09-.7-.18-.23-.09-.46-.18-.7-.26-.43-.21-.72-.64-.88-1.28v-.48c0-.16.03-.36.08-.6.08-.21.16-.41.24-.6s.19-.35.32-.48c.13-.16.28-.3.44-.42.16-.12.32-.25.48-.38l2.72-1.64c.27-.13.51-.23.72-.3.21-.07.4-.14.56-.22.21-.16.41-.28.6-.36s.41-.19.68-.32c.21-.19.45-.35.7-.48.25-.13.55-.29.9-.48.29-.16.57-.3.84-.42.27-.12.53-.25.8-.38v-2h-5.86c-.17,0-.35-.01-.54-.04-.13-.05-.29-.09-.46-.1-.17-.01-.33-.02-.46-.02-.4,0-.75-.09-1.04-.28-.24-.16-.49-.43-.76-.8-.05-.13-.11-.3-.16-.5-.05-.2-.08-.38-.08-.54,0-.21,0-.41.02-.58.01-.17.06-.34.14-.5.27-.48.63-.84,1.08-1.08.24-.13.48-.24.72-.32.24-.08.48-.12.72-.12h.88c.24.05.44.08.6.08h.44c.08-.05.2-.08.36-.08h4.68l-.12-1.48c0-.13.02-.26.06-.38s.09-.25.14-.38c0-.13.03-.26.08-.38.05-.12.11-.25.16-.38.16-.13.37-.35.64-.64.19-.13.39-.23.6-.28.21-.05.45-.11.72-.16M143.69,73.18c.08,0,.15,0,.23.01.23.03.43.04.62.04.29,0,.54.03.74.1.2.07.42.13.66.18.19.13.37.25.54.34.17.09.33.22.46.38.21.35.32.79.32,1.32,0,.69-.24,1.21-.72,1.56-.19.16-.42.3-.7.42s-.55.21-.82.26c-.37.05-.71.1-1.02.14-.31.04-.65.07-1.02.1h-7.84c0,.21,0,.48.02.8.01.32.02.64.02.96s0,.62.02.9c.01.28.02.5.02.66v.88c0,.29-.03.63-.08,1-.05.27-.11.52-.18.76-.07.24-.15.47-.26.68-.08.27-.21.49-.38.66-.17.17-.37.34-.58.5-.16.13-.36.24-.6.32-.24.08-.48.12-.72.12-.29,0-.57-.04-.84-.12s-.49-.19-.68-.32c-.19-.05-.34-.17-.46-.34-.12-.17-.22-.37-.3-.58-.11-.21-.19-.41-.26-.58-.07-.17-.13-.37-.18-.58v-5.72h-8.52c-.29,0-.59-.01-.9-.04-.31-.03-.58-.09-.82-.2-.29-.03-.55-.13-.78-.3-.23-.17-.43-.39-.62-.66-.13-.21-.25-.44-.34-.68-.09-.24-.11-.48-.06-.72,0-.24.05-.49.14-.74.09-.25.26-.49.5-.7.11-.16.35-.32.72-.48.19-.05.35-.11.48-.16.13-.05.28-.08.44-.08.19-.03.35-.04.48-.04h22.8c.16-.04.32-.05.47-.05M132.1,46.19h-.5l-.49.1c-.35.07-.67.14-.96.21-.81.2-1.58.56-2.28,1.05l-.44.31-.36.4c-.07.08-.14.15-.19.2l-.92.77-.41,1.03h-.42c-.24,0-.47.01-.68.04l-.16-.04h-.56s-.88,0-.88,0c-.78,0-1.55.13-2.3.38-.52.17-1.03.4-1.53.67-1.28.69-2.34,1.74-3.06,3.05l-.05.09-.05.1c-.37.74-.59,1.53-.65,2.36-.02.29-.03.61-.03.96,0,.6.08,1.22.25,1.84.11.4.22.75.35,1.08l.22.55.34.48c.37.52.75.96,1.16,1.35-.41.31-.78.66-1.12,1.04-.5.54-.91,1.17-1.21,1.86-.11.26-.22.53-.33.82l-.12.32-.07.33c-.14.6-.2,1.16-.2,1.7v1.09l.09.35c-.64.67-1.12,1.44-1.44,2.29-.24.64-.38,1.3-.43,1.96-.13,1.02,0,2.06.38,3.04.2.53.46,1.04.76,1.52l.06.1.07.1c.48.69,1.05,1.29,1.69,1.77.74.57,1.59.96,2.51,1.17.54.17,1.11.29,1.7.34.43.04.88.06,1.33.06h3.52v1.33l.15.59c.1.41.22.8.37,1.17.1.26.22.53.36.82.21.49.46.96.76,1.39.6.86,1.38,1.52,2.28,1.96.47.27.99.48,1.53.65.73.22,1.5.33,2.28.33s1.55-.13,2.3-.38c.78-.26,1.49-.64,2.1-1.13.36-.28.71-.58,1.02-.89.67-.67,1.16-1.45,1.49-2.33.17-.39.32-.8.44-1.22.1-.37.19-.73.26-1.11l.03-.14.02-.14c.04-.32.08-.62.1-.9h3.14c.47-.05.91-.09,1.31-.14.33-.04.69-.09,1.08-.15l.13-.02.13-.03c.61-.12,1.22-.31,1.82-.57.68-.29,1.29-.66,1.82-1.09,1.67-1.29,2.62-3.28,2.62-5.49,0-1.47-.36-2.79-1.06-3.94l-.19-.31-.23-.28c-.17-.21-.36-.4-.55-.58l.02-.23c.05-.6.05-1.2,0-1.8l-.06-.77-.29-.72c-.08-.19-.16-.39-.26-.6-.41-.9-1.03-1.66-1.8-2.23-.06-.06-.12-.12-.18-.18-.16-.16-.33-.31-.5-.46.22-.16.44-.33.64-.5l.2-.18.18-.2c1.55-1.65,2.15-3.93,1.65-6.27l-.03-.14-.04-.14c-.22-.79-.54-1.52-.96-2.18-.48-.73-1.07-1.36-1.77-1.85-.57-.44-1.2-.79-1.89-1.04-.17-.06-.31-.12-.45-.18l-.5-.22-.54-.11c-.59-.12-1.19-.18-1.79-.18h-2.58c-.34-.65-.78-1.24-1.33-1.74-.29-.28-.62-.55-.97-.8-.34-.24-.67-.45-1-.64l-.5-.28-.55-.16c-1.01-.3-1.94-.45-2.84-.45h0Z"/>
      </g>
      <g>
        <path class="cls-2" d="M176.61,88.35c-.41,0-.83-.05-1.26-.15-.86-.17-1.59-.53-2.19-1.07-.54-.48-.96-1.1-1.22-1.83-.16-.43-.28-.88-.37-1.31-.1-.49-.15-.93-.15-1.35v-26.16c0-.48.04-.98.1-1.47.07-.52.19-1.02.35-1.49.22-.67.57-1.26,1.04-1.73.65-.65,1.38-1.06,2.19-1.23.49-.1,1.01-.15,1.55-.15.95,0,1.83.27,2.63.79.81.53,1.43,1.3,1.78,2.23.34.81.53,1.68.57,2.56l.08,1.95v.2c.05,1.96.07,4.12.04,6.35-.03,2.15-.04,4.18-.04,6.09v10.12c0,.19,0,.38.02.58.02.4,0,.78-.03,1.15l-.02.12c-.04.25-.07.5-.09.74-.05.51-.15,1.02-.32,1.52l-.06.18-.09.17c-.03.11-.11.3-.22.52-.38.75-.88,1.35-1.49,1.8l-.08.06-.09.05c-.8.49-1.68.74-2.62.74ZM162.72,86.22c-.68,0-1.36-.14-2.01-.42-.93-.39-1.63-1.06-2.02-1.93-.56-1.12-.86-2.45-.86-3.88v-1.66c-.03-.35-.04-.71-.04-1.06v-14.89s-.08,0-.12,0h-1.67c-.25.01-.5.02-.75.02-.27,0-.55,0-.82-.02-.18-.01-.36-.02-.54-.02-.16,0-.31,0-.47.01-.22.02-.42.03-.61.03-.13,0-.26,0-.38-.01-.1,0-.24-.01-.38-.01-.36,0-.73-.02-1.13-.05-.77-.06-1.48-.32-2.11-.76-.82-.58-1.4-1.36-1.7-2.26-.21-.63-.32-1.29-.33-1.97-.04-.88.14-1.76.54-2.6.29-.68.71-1.23,1.25-1.63.35-.3.78-.54,1.27-.72.32-.12.6-.21.84-.28l.11-.03c.73-.17,1.5-.27,2.28-.29.63-.01,1.25-.02,1.86-.02h7.15l.19.03c.31.05.63.09.97.12.62.06,1.22.21,1.77.44.3.11.68.31,1.04.54.46.3.84.67,1.15,1.11l.07.11c.45.7.72,1.44.8,2.2.04.37.15,1.33.15,1.33.06.8.09,1.61.09,2.4v15.34l.02.53c.01.41.02.9.02,1.45v1.64c0,.63-.02,1.18-.04,1.65-.04.42-.09.77-.16,1.13-.09.5-.24.97-.44,1.42-.24.54-.58,1.03-1.01,1.46-.47.47-1.04.83-1.71,1.09-.71.29-1.48.45-2.26.45Z"/>
        <path class="cls-1" d="M176.65,52.92c.45,0,.87.13,1.26.38.39.25.66.61.82,1.06.24.56.37,1.15.4,1.76.03.61.05,1.23.08,1.84v.2c.05,2.05.07,4.16.04,6.32-.03,2.16-.04,4.2-.04,6.12v10.12c0,.24,0,.48.02.72.01.24,0,.48-.02.72-.05.32-.09.63-.12.94-.03.31-.09.62-.2.94-.05.11-.09.2-.12.28s-.07.17-.12.28c-.19.37-.43.67-.72.88-.41.25-.85.37-1.32.37-.23,0-.47-.03-.72-.09-.43-.08-.78-.24-1.04-.48-.24-.21-.42-.49-.54-.82-.12-.33-.21-.66-.28-.98s-.1-.6-.1-.84v-26.16c0-.37.03-.75.08-1.12.05-.37.13-.72.24-1.04.11-.32.25-.57.44-.76.29-.29.6-.47.92-.54s.67-.1,1.04-.1M161.89,54.28c.35.05.71.1,1.1.14.39.04.74.13,1.06.26.21.08.42.19.62.32.2.13.37.29.5.48.24.37.38.75.42,1.12.04.37.09.79.14,1.24.05.75.08,1.49.08,2.22v15.34s0,.23.02.62c.01.39.02.84.02,1.36v1.64c0,.57-.01,1.07-.04,1.5-.03.27-.07.55-.12.84-.05.29-.14.57-.26.84-.12.27-.29.51-.5.72-.21.21-.49.39-.84.52-.45.19-.91.28-1.36.28-.35,0-.69-.07-1.04-.22-.35-.15-.59-.37-.72-.66-.43-.85-.64-1.8-.64-2.84v-1.76c-.03-.32-.04-.64-.04-.96v-14.96c0-.43-.03-.87-.08-1.32-.03-.13-.06-.32-.1-.56s-.13-.39-.26-.44c-.12-.07-.25-.1-.39-.1-.02,0-.05,0-.07,0-.06,0-.12,0-.17,0-.11,0-.22,0-.33-.03-.09-.01-.19-.02-.28-.02s-.18,0-.26.02c-.09.01-.18.02-.27.02s-.18,0-.27-.02h-1.88c-.23.01-.45.02-.68.02s-.45,0-.68-.02c-.23-.01-.45-.02-.68-.02s-.45,0-.68.02c-.14.02-.27.03-.4.03-.06,0-.12,0-.18,0-.17-.01-.37-.02-.58-.02-.29,0-.6-.01-.92-.04s-.61-.13-.88-.32c-.37-.27-.63-.6-.76-1-.13-.4-.2-.81-.2-1.24-.03-.51.08-1.01.32-1.52.13-.32.31-.55.52-.68.13-.13.33-.25.58-.34.25-.09.47-.17.66-.22.56-.13,1.15-.21,1.76-.22.61-.01,1.21-.02,1.8-.02h6.96M176.65,47.92c-.71,0-1.4.07-2.06.2-1.27.26-2.46.92-3.44,1.9-.75.75-1.3,1.67-1.65,2.73-.02.05-.03.1-.05.14-.03-.04-.05-.08-.08-.12l-.07-.11-.07-.1c-.49-.68-1.09-1.26-1.78-1.72-.5-.33-1.02-.6-1.55-.81-.75-.3-1.56-.5-2.4-.59-.29-.03-.57-.07-.84-.11l-.38-.06h-7.35c-.62,0-1.26,0-1.91.02-.96.02-1.9.14-2.8.35l-.11.03-.11.03c-.31.09-.63.2-1,.33-.75.28-1.41.65-1.98,1.12-.84.65-1.51,1.52-1.97,2.56-.55,1.19-.8,2.43-.75,3.69.01.92.17,1.83.46,2.7.47,1.4,1.37,2.61,2.6,3.49,1.02.72,2.17,1.13,3.37,1.23.46.04.91.06,1.33.06.08,0,.15,0,.22,0,.16.01.35.02.55.02.26,0,.53-.01.8-.04.09,0,.19,0,.28,0,.13,0,.26,0,.39.01.32.02.65.03.97.03.01,0,.03,0,.04,0v12.38c0,.38.01.77.04,1.15v1.57c0,1.79.38,3.48,1.14,5.02.66,1.38,1.82,2.47,3.28,3.09.96.41,1.97.61,2.99.61,1.09,0,2.17-.21,3.21-.64.97-.38,1.82-.93,2.51-1.62.34-.34.64-.7.9-1.08.08.26.16.52.26.79.39,1.1,1.04,2.07,1.91,2.85.9.81,2.01,1.37,3.3,1.63.6.14,1.2.21,1.79.21,1.38,0,2.73-.38,3.91-1.1l.18-.11.17-.12c.94-.69,1.69-1.59,2.24-2.67.12-.24.21-.46.3-.67l.1-.2.12-.37c.22-.68.37-1.37.43-2.06.02-.19.04-.37.07-.57l.02-.12v-.12c.07-.5.09-1.01.06-1.53-.01-.19-.02-.33-.02-.48v-10.12c0-1.89.01-3.93.04-6.06.03-2.24.01-4.41-.04-6.45v-.34s-.04-.91-.04-.91l-.04-.93c-.05-1.18-.3-2.32-.74-3.39-.54-1.41-1.48-2.59-2.74-3.41-1.19-.78-2.57-1.2-4-1.2h0Z"/>
      </g>
    </g>
  </g>
</svg>